<?xml version="1.0" encoding="UTF-8"?>
<svg id="Layer_1" xmlns="http://www.w3.org/2000/svg" version="1.1" viewBox="0 0 1920 1080">
  <!-- Generator: Adobe Illustrator 29.5.0, SVG Export Plug-In . SVG Version: 2.1.0 Build 137)  -->
  <rect x="-.07" y="1.26" width="1920" height="1080" fill="#f2f7e7"/>
  <g>
    <path d="M291.14,1984.2c-5.31-.25-12.1,1.86-11.59-4.25" fill="#193535"/>
    <path d="M373.47,1984.2c-5.31-.25-12.1,1.86-11.59-4.25" fill="#173233"/>
    <line x1="437.79" y1="1855.57" x2="437.79" y2="1909.78" fill="#143132"/>
    <path d="M749.47,1054.32c1.51-6.87-3.72-29.1,4.17-32.17,7.3-2.83,10.55,2.35,16.09,3.26,15.7,2.59,21.73-32.24,1.02-31.74-6.12.15-14.89,6.95-19.86.48-2.23-2.91-2.33-29.07-.05-31.71,5.42-6.28,29.12,3.42,26.84-13.78-.83-6.3-11.84-19.69,4.66-21.84,9.11-1.19,31.66-.83,33.82,9.23,1.73,8.07-12.34,25.36,11.12,22.59l47.39-4.2c1.67-.51.44-3.16,2.15-3.23l1.08-.36c2.5-16.41,7.14-14.54,3.11.82.41,1.2,1.58,1.75,3.53,1.66,17.97-2.69,9.02,2.89-1.29,3.19.74,5.94,2.04,11.82,3.88,17.61,2.54,8.85,1.67,20.31-12.97,19.24-15.35-3.36-26.28-3.28-26.01,12.53.23,14.16,10.44,14.05,24.12,9.17,6.27-1.84,17.36,4.55,12.27,8.95,4.27,1.02,3.94,14.3,0,15.95,6.06-.91,5.13,12.19,1.29,14.35h-136.36Z" fill="#21928d"/>
    <path d="M1013.19,858.72c1.26.05,2.13.52,2.57,1.47l-.13,14.53c-.22,8.41,6.79,10.51,21.04,6.3,28.28-.35,24.19,49.09-5.95,42.91-25.43-12.73-16.89,13.6-12.69,24.61l4.82.72c25.29-1.89,55.25-3.95,40.51,25.55-3.44,9.6,29.98,10.56,27.66.64-6.8-18.83-4.16-30.27,23.3-26.81,5.6.71,18.1,2.65,19.78,6.83,3.45-2.19,3.88-.77,1.29,4.25-4.12-1.53-19.33-4.79-23.96-5.18-30.3-2.56-7.21,15.71-14.8,27.9-5.79,9.3-36.39,7.9-40.42-2.46-2.84-7.28,3.78-12.08,4.18-17.76.7-9.84-17.77-6.84-24.65-6.7-5.79.12-11.63-.19-17.41-.04,1.21,8.77,14.24,29.88,3.05,36-12.45,6.8-22.96-9.6-31.59,6.86-2.89,5.52-3.45,10.14-.71,15.86,6.29,13.17,19.36.63,30.18,5.89,11.99,5.84,4.95,24.96,4.21,34.25h-5.15c.2-7.09,7.22-27.66-2.59-31.34-9.55-3.58-20.14,8.36-29.84-5.12-6.06-8.43-3.97-21.77,4.97-28.23,10.49-7.58,15.53,1.03,24.17-.15,13.74-1.88-1.98-26.93-2.03-33.89-9.32-.14-38.12-6.89-44.79-2.74s1.81,15.12,2.2,20.41c1.16,15.68-45.38,19.57-44.77-.23.17-5.46,7.55-16.75-1.58-19.97-7.7-2.72-31.12,4.33-40.83,3.45l-.62-1.03,10.9-1.11c-.63-1.93-7-1.12-9-1.05-1.12-.3-1.11-.66,0-1.06l2.21-2.16c25.87-5.08,59.7-10.33,46.8,22.43-2.44,10.95,31.54,10.12,28.54-.6-5.3-13.78-7.55-26.48,15.13-26.65l29.98,2.94c-8.67-19.89-6.07-44.92,27.94-31.86,11.91,1.1,16.19-28.66-.19-26.83-23.81,4.89-31.18-3.75-29.56-21.9l2.65-1.47.74-7.52c-1.28-5.49-.67-6.88,1.83-4.17,1.07,6.08,1,13.9,0,20.2.37-.93.79-.91,1.29,0-.72-6.33-.94-12.84-.64-19.53-3.06-1.02-2.58-4.25.64-4.92,3.24-2.59,2.09,5.48,1.29,8.5Z" fill="#227c79"/>
    <path d="M1144.41,1054.32h-5.15c2.29-6.74,8.53-30.97-4.62-31.84-7.31-.49-12.54,3.77-19.72.39-14.4-6.77-11.67-34.62,4.48-35.48,5.68-.3,10.33,4.76,17.67,2.94,8.54-2.12-.11-22.83-.38-28.49-1.61-4.96,3.27-2.74,2.84,1.9-.03.33-3.44-5.88,1.02-4.03,2.32,8.43,10.7,27.72-.05,33.44-9.63,5.12-16.13-3.63-23.07-1.01-9.22,3.48-8.79,24.3-.02,27.61,7.37,2.78,19.55-5.1,26.81,3.37,7.41,8.65,2,21.57.19,31.2Z" fill="#247b78"/>
    <path d="M876.83,832.14c-.43-1.74-2.4-3.78-1.29-6.38-13.93,3.23-27.24-2.27-40.89-3.94-7.18-.88-14.37-2.8-20.23,1.8-7.56,5.93.78,13.49.77,20.75-.03,16.87-27.12,9.06-40.07,9.64-17-4.37,1.31-20.7-1.45-28.53-3.66-10.4-37.88,3.78-41.68-7.13-2.18-6.24,9.57-28.6,4.68-31.43-9.15.21-34.75-9.66-41.58-8.8-13.69,1.71-4.81,25.7-22,24.22-3.78-.33-27.09-8.25-28.45-10.57-5.29-8.98,13.13-16.4,9.37-26.9-3.12-8.7-21.17,1.2-27.68,3.25-3.09.97-18.11,5.73-19.63,5.1-3.97-6.52-17.57-18.71-16.84-25.59.81-7.56,20.43-7.06,21.98-13.85,1.5-6.56-11.18-30.98-18.59-34.57-8.06-3.9-18.04,10.99-24.86-.71-1.16-1.99-6.08-20.33-5.53-21.97l13.62-4.88c1.28-.17.39,3.18.63,3.18h114.49l-7.68,6.91,5.57,3.63,20.1-14.23c-2.39-2.12-18.4-15.07-19.89-15.16-.59-.03-6.64,1.74-5.8,3.42.94,1.88,12.04,8.16,10.27,10.11l-109.33-1.05c34.18-10.89,70.98-24.5,99.65-43.63,26.34-17.57,50.12-45.72,24.49-72.27-35.64-36.94-168.98-49.39-225.17-66.94-24.5-7.65-54.3-22.32-15.63-37.41,20.33-7.93,49.16-12.61,71.37-16.5,25.22-4.42,50.69-7.68,76.15-10.96v-46.77h-180.1v-32.95l42.45-1.06v-94.61c-9.29,4.42-18.06,9.68-27.44,14-6.93,3.19-26.33,14.7-23.43.88,72.98-31.9,135.26-80.02,175.87-139.61,3.97-5.83,15.53-21.93,17.19-27.26,1.55-4.99,1.5-20.88,1.63-27.14.04-1.87-3.14-13.29.9-13.29h27.66v39.86c0,5.65,35.79,48.35,42.49,55.25,136.37,140.31,453.63,219.32,625.19,78.71,1.54-1.27,10.28-8.94,10.28-9.58v-22.86h30.87v31.36c0,2.45,29.16,36.03,33.48,40.37,31.8,31.87,74.2,56.05,119.6,72.85v33.49c0,.11-1.79,1.59-1.93,1.59h-148.58l1.42,50.92c24.19,4.04,48.92,6.94,72.59,12.85,1.81.45,2.28-.67,1.87,2.13-38.11,15.09-79.52,28.79-112.52,51.08-17.76,11.99-29.36,24.55-34.13,43.56-.93-.67-1.47,3.91,1.23,3.81-.48,3.02-.89,6-1.23,8.95-2.71,7.13-4.62,14.58-8.02,21.54-29.95,61.32-120.51,74.5-180.2,108.35-66.25,37.56-72.69,86.03-2.06,123.56,17.32,9.2,35.61,14.66,53.31,22.9.35,4.65-12.71,25.41-10.86,27.6,9.42.82,33.45,10.35,41.42,8.39,12.22-2.99,2.63-24.47,17.07-25.27,4.53-.25,27.55,7.76,30.81,10.59,11.17,9.7-13.61,19.93-6.44,29.78,4.29,5.89,38,4.08,40.28,10.29,1.79,4.86-2.52,24.27-8.02,26.97-11.17,5.48-15.43-7.81-27.01-6.4-14.55,1.77-17.71,30.9-2.59,32.85,13.75,1.77,25.29-5.65,22.13,12.04-.42,2.37-5.67,16.43-7.38,17.28-8.24,4.09-24.7-7.21-31.27-5.72-7.85,1.78-3.24,21.94-14.69,24.08-6.63,1.24-14.6,0-20.35-2.94-15.65-7.99,5.38-24.14-5.84-30.26-8.58-4.68-22.18,5.45-30.79,6.85-3.27,1.4,3.29,9.4,1.27,12.75l-3.88-11.7c-.45.07-1.14,1.1-1.26,1.08-1.22-.18-1.16-2.08-1.29-2.13l-5.14-2.14v-1.04s5.14-.02,5.14-.02c.33-.83-1.27-.92-1.29-1.05l-2.45-1.28c-.86-2-3.52-18.01-3.77-20.92-1.42-16.54,1.72-21.06,23.14-14.04,13.81,2.1,19.34-28.65,2.35-27.57-29.09,5.54-30.24-4.61-23.53-24.24l6.97-16.21c-2.04-1.46-30.44-6.46-34.25-6.39-4.04.07-5.01,1.42-4.7,4.64,7.65,17.65-1.91,28.96-24.19,30.22-26.02,1.46-24.5-13.9-21.01-30.56,1.69-8.78-34.27.46-35.68,1.6,1.16,6.13-.11,8.81-3.81,8.03-.06-2.82.06-5.68-.01-8.5h-1.27s0,24.44,0,24.44h-1.29v-20.2h-1.27c-.29,3,.37,6.14.04,9.12-.15,1.36-1.33,2.43-1.34,2.57-2.76-.79-3.58-3.75-2.44-8.87-.61-2.27-3.27-3.74-7.99-4.4-26.42-6.74-33.84-6.13-28.27,18.37-3.01,17.54-55.05,16.94-51.25-3.58,14.17-30.28-11.76-21.75-30.97-11.09-1.09,1.19-1.54,1.13-1.31-.28,1.95,6.93,1.53,13.4-1.27,19.41,1.73,1.55.97,2.15-1.29,1.06-4.77,2.25-6.27.59-1.73-2.06,2.3-3.1,2.26-6.82,2.21-10.36-.16-10.45-3.9-22.79-6.91-32.23Z" fill="#20918c"/>
    <path d="M1574.08,490.91c-.03-3.39.6-22.27-.17-23.25-.92-1.18-11.76-1.36-12.52-3.94l15.24-66.37-19.92,39.36c-11.25,2.71-6.24-9.97-5.17-14.93,2.46-11.34,9.72-38.49,17.99-46.79,11.81-11.83,39.88-14.18,50.06.15,9.1,12.8,14.38,31.02,22.67,44.53,3.86-.03,5.21-3.68,8.63-5.07,6.43-2.61,20.82-.55,25.39,4.05,2.19,2.21,2.03,6.88,5.84,6.34,4.7-17.43,8.37-54.28,24.42-66.46,16.64-12.63,50.27-9.05,59.46,9.38,4.95,9.91,7.02,41.32,7.51,53.32.14,3.42.79,14.07-1.31,16-2.19,2.01-7.33,2.42-7.85-1l-11.46-46.32c.24,12.22-.35,24.49-.07,36.71.54,23.07,2.57,46.48,2.63,69.59,3.67.77,3.25,10.26,2.75,13.45,4.66,11.26-19.53,10.97-21.77,5.72-1.8-4.22-1.76-17.38,1.01-21.3-1.54-1.57-2.63-3.33-3.26-5.28l-4.86-34.81-4.34,36.3,2.18,2.72c-.64,1.51-1.93,2.99-3.89,4.43.34,6.57-.01,22.17-9.98,23.21-5.07.53-10.89-.92-13.03-4.9-1.17-2.17-.74-20.15-.17-23.39l2.62-1.49c-1.31-3.49-2.06-7.06-2.25-10.71l3.3-73.21c-4.5,8.25-7.35,17.04-8.72,26.06l-2.62.98,2.57,1.21c.73,3.51,1.16,14.29-2.57,15.8,1.86,6.23-13.63,5.01-13.44-2.28l.43,33.46c-.3,2.65-1.11,5.19-2.42,7.62,5.15,1.64,4.77,14.03,4.35,18.7,4.68,10.78-15.06,15.22-18.89,8.14-.85-9.03-1.58-17.97-2.19-26.83,1.48-2.07,1.05-2.07-1.29,0,.81.46,1.65.99,1.78,1.74.51,3.11-.49,23.25-1.79,24.68-.67.74-19.93,2.88-20.27-2.33-.46-7.05,1.7-18.77,4.85-25.15-.64-.9-1.23-1.81-1.66-2.77s-.8-1.85-.82-2.76c-.37-17.01-.26-34.12,1.1-51.08-8.13-.61-12.37-4.74-15.24-10.77l-7.04-14.67c1.12,19.32,4.1,38.45,8.92,57.38-3.99,2.53-7.9,4.91-11.72,7.13l.7,15.22-2.54,2.32c1.15,1.02,2.35,2.17,2.6,3.6.56,3.2,1.35,23.81-1.21,25.9-4,3.26-16.5-1.1-17.5-3.86-1.16-3.21-1.66-16.6-1.55-20.76l2.22-3.82-2.77-2.53c.06-3.97-1.28-24.55-2.81-13.41l-.66,11.09-2.76,1.66c-.77,1.56-1.27,2.99,1.15,3.27.53,2.35-2.03,22.52-3.27,24.34-4.53,6.63-13.28,2.92-16.6-3.26-2.1-3.91-2.24-17.52,1.99-20.1Z" fill="#056465"/>
    <path d="M1590.8,486.65c1.98,1.27,4.45,1.6,7.41,1l1.59,2.19c.7,7.92,1.76,15.79,1.46,23.78,18.92,9.9,14.23-.22,13.93-10.45-.14-4.79.17-9.61.05-14.39.12-.83.42-2.06,1.14-2.13,2.45-.23,24.17-.42,25.33,0,.97.35,1.45,1.29,1.83,2.13-.21,8.24-.91,16.71-2.42,24.9,1.14,3.88,12.85-.75,16.56,1.67.35-7.24-.44-14.6,0-21.84.1-1.58,1.25-3,1.29-3.66.37-.93.79-.91,1.29,0,.79.68,2.17.81,2.53,1.87,1.6,4.73.7,24.21,2.75,25.65,1.07.75,12.26.2,12.78-1.65.94-3.34.14-14.69,0-19-.08-2.4-1.28-4.59-1.34-6.87l1.6-2.06c7.47.31,14.94.62,22.41.93l1.71,2.2c-.11,4.8-1.11,21.68.18,24.84.99,2.44,10.03,3.64,12.71,2.29,1.58-.79,4.71-8.81,5.01-10.74,1.04-6.63-3.52-12.53,6.54-14.26,1.69-2.83,9.15-1.76,10.29,1.06.78,6.51.83,13.95,1.23,20.56.57,2.07,14.58,2.72,16.22.77,1.28-1.51.57-15.88.56-19.2,22.67,3.25,46.67,6.87,67.76,14.7,11.2,4.16,25.87,11.27,30.01,21.45,1.54,7.85,1.46,13.34-2.21,21.07l-3.06,1.26-43.79,1.66-1.02,1.76c20.03,25.91-48.62,21.04-30.31.39,6.48-2.55,5.41-3.56-3.21-3.03-9.55.81-18.72.56-27.5-.74-10.15-33.58-72.08-25.08-101.8-15.99-20.18-5.06-36.28-9.04-58.36-7.68-19.4,1.19-44.24,4.95-48.51,23.16l-2.91,1.96c-9.99.52-19.96.81-29.93.88l-.9,2.08c9.14,19.38-31.25,20.94-33.78,6.35,3.8-9.35,2.68-9.97-9.27-9.94-11.42.78-22.57.58-33.45-.61-1.47-5.93-2.22-12.05-2.24-18.34,6.02-16.94,25.86-24.32,44.36-29.79,34.39-10.15,72.43-13.85,108.73-15.93.08,8.7-4.81,25.83,10.74,24.52,3.32-.62,4.1-22.57,4.64-26.2.2-1.36,1.31-2.34,1.34-2.57Z" fill="#20928d"/>
    <path d="M1420.99,536.62c4.31,2.66,3.1,16.39,3.85,17.01,1.46,1.2,34.71-1.32,41.25.46,8.56,2.33,2.39,7.87,2.41,11.8.04,8,25.05,9.71,29.01,2.6,2.2-3.95-3.17-10.77,1.94-13.28s26.31,1.53,31.35-1.48c1.4-.84,2.99-9.85,9.18-13.92,18.38-12.07,54.56-12.91,76.59-9.08,6.64,1.16,18.37,5.9,23.75,5.91,4.46,0,13.12-3.9,18.39-5.03,24.1-5.2,82.49-6.23,85.18,22.01,1.19,1.05,31.31-1.45,34.76.51,5.71,3.25-4.45,4.29-5.91,7.94-5.38,13.52,27.2,13.94,30.97,7.5,3.86-6.59-8.42-10.77-.33-15.17l45.95-1.9c-1.07-4,3.37-8.33,3.9-11.21.59-3.25-2.82-6.44.02-8.94,8.09,19.9,3.37,46.96-12.9,63.22-47.73,47.71-135.55,69.31-201.32,95.06-51.2-17.85-106.12-33.24-152.58-58.75-39.17-21.5-80.93-51.7-65.44-95.28Z" fill="#096768"/>
    <path d="M682.23,841.89c9.95-1.69,21.84,15.21,28.29,16.68,5.86,1.33,13.55-7.17,20.11-4,1.57.76,18.69,19.71,19.92,21.86,7.33,12.79-23.96,7.19-24.19,15.75-.13,4.58,21.23,27.97,21.87,35.07-.36,3.1-20.88,14.59-25.02,14.38-9.63-.47-10.31-15.02-17.49-17.51-5.53-1.91-18.51-.06-21.17,4.77-5.31,9.63,13.53,19.34,8.21,25.91-2.09,2.59-29.57,11.27-32.17,10.77-6.51-1.23-14.03-28.63-24.25-30.94-10.46-2.36-19.5,20.22-33.75,2.42-3.97-4.96-10.17-16.24-2.84-20.84,4.19-2.63,20.87-2.52,22.29-6.1,2.57-6.49-19.98-28.02-14.13-36.07,1.19-1.64,17.94-8.94,20.62-9.52,19.88-4.27,10.46,12.17,17.34,17.62,6.97,5.53,18.53,1.69,23.16-4.35,7.14-9.34-7.94-12.84-5.19-20.19.91-2.44,15.03-15.15,18.42-15.73Z" fill="#21928d"/>
    <path d="M1638.14,89.39c78.14-4.1,86.72,94.47,12.47,100.66-85.59,7.13-96.01-96.27-12.47-100.66Z" fill="#20928d"/>
    <path d="M361.63,551.98c5.58.27,13.86,8.35,14.68,12.88.67,3.67-.71,7.48.66,11.15,2.5,6.74,14.68,9.53,21.79,6.2,9.57-4.48.39-17.05,19.98-5.64,3.86,2.25,14.1,9.04,14.38,12.66.72,9.12-11.62,7.39-12.94,14.97-1.72,9.87,10.66,17.84,21.89,14.86,5.6-1.49,8.83-8.33,13.42-10.95,1.62-.1,19.63,14.01,20.58,15.7,3.74,6.64-9.7,11.42-14.79,15.38-15.82,12.28-2.8,8.68,3.92,14.86,9.07,8.34-1.2,25.36-16.62,19.04-7.68-3.15-3.55-5.45-7.1-9.01-9.42-9.43-25.11,12.86-31.67,11.39-5.62-1.26-16.06-24.9-26.45-26.18-7.54-.93-6.44,6.16-9.53,10.11-12.45,15.89-39.11-4.87-32.85-16.47,3.8-7.05,17.49-8.59,16.15-16.43-1.33-7.78-27.57-8.55-25.73-21.22,1.71-11.73,20.49-10.69,23.74-16.59,5.64-10.25-14.06-16.87-13.47-24.89.39-5.26,14.15-12.11,19.96-11.82Z" fill="#046262"/>
    <path d="M238.75,557.88h32.8c.33,0,4.7,1.69,5.22,2.07,6.41,4.69-7.61,28.03,7.69,27.58,2.2-.06,4.1-1.68,6.48-1.97,16.96-2.12,22.17,25.4,1.04,26.5-2.41.13-14.64-2.76-14.64.57v35.08c0,2.5-17.84,1.56-21.21,1.6-4.99.06-17.03,3.01-18.64-3.76-2.19-9.2,8.99-12.1,7.19-19.67-2.4-10.08-25.25-11.86-31.12-3.23-7.72,11.34,4.28,14.96,1.79,21.66-2.23,5.98-33.17,6.37-36.46,2.89-3.23-3.41-4.65-29.87-2-33.34,3.53-4.61,18.73,2.61,25.67-5.63,5.83-6.92.68-23.65-12.05-22.79-4.66.32-9.44,4.78-13.27-.66-2.64-3.75-2-26.9,1.68-26.9h25.73c2.96-2.21,1.7-6.03,2.76-9.42,3.39-10.83,13.79-16.8,26.64-10.62,12.08,5.81,5.15,11.18,4.69,20.04Z" fill="#046262"/>
    <path d="M333.72,640.97c.86,1.15-.12,10.71,2.95,16.17,8.46,15.03,26.66,15.97,43.58,10.23-.69,2.67,1.67,12.43,4.13,13.59,3.52,1.66,16.27-1.54,19.71,1.27,2.77,2.26,2.64,15.91.95,18.91-3.97,7.05-17.76-3.05-22.78,2.44-5.74,6.27,2.44,21.8-1.99,24.93-2.94,2.08-22.46,2.43-25.22.62-4.95-3.24.56-10.85.69-14.58.37-10.07-23.57-14.61-27.65-3.65-4.62,12.4,11.52,19.01-14.24,22.25-6.73.85-20.3,1.73-26.84,1.18-15.42-1.31-9.34-6.44-10.96-15.39-1.02-5.62-5.77-13.71-3.66-19,1.52-3.82,10.92-.67,14.31-.91,22.4-1.57,20.77-34.12.09-34.49-3.79-.07-10.28,3.14-13.39,1.31-6.45-11.84,5.56-8.99,9.56-13.61,4.02-4.64,1.96-8.19,2.84-12.62,6.97-1.19,45.12-2.42,47.92,1.35Z" fill="#046162"/>
    <path d="M149.62,742.53c-5.35,3.65-18.94-1.6-24.57-4.07-22.2-9.76,5.25-14.77,5.72-24.88.7-14.87-29.47-19.07-33.04-2.66-.75,3.43,2.38,11-3.98,12.6-3.55.89-25.3-4.17-26.77-6.18-4.34-5.93,9.9-16.99,7.83-23.45-2.5-7.82-20.64-5.24-21.33-11.15-.12-1.07,6.12-19.06,7.07-20.72,1.47-2.58,4.91-6.49,8.68-6.19,9.55.74,8.16,13.35,14.79,16.66,7.72,3.86,18.36-9.36,23.9-8.2,3.65.76,4.81,7.79,6.8,10.4,11.22,14.7,46.15,7,43-14.28-.66-4.48-4.41-5.89-5.08-9.96,5.16-1.07,14.49-12.91,19.25-8.13,3.04,3.05,1.7,8.38,7.18,11.08,11.01,5.43,29.85-1.79,28.88,13.44-.76,11.9-9.44,6.7-17.48,6.78-13.67.13-22.46,24.14-8.25,32.45,7.33,4.28,12.43,1.52,19.93,3.73,2.67,5.51-2.76,20.1-9.66,21.92-12.47,3.29-15.79-9.84-25.46-11.03-11.15-1.37-12.15,18.24-17.42,21.83Z" fill="#046161"/>
    <path d="M132.04,87.92l71.63,36.07c6.14,1.32,4.62-9.79,11.8-11.05,12.93-2.27-1.66,19.95-3.99,23.23-14.44,20.34-35.46,30.83-62.72,36.41-2.58.53-12.54.41-12.79,3.11-.08.81,6.56,12.17,7.6,14.88,8.36,21.91,9.88,42.29-7.96,61.49-3.13,3.36-17.57,17.8-22.31,11.36s10.87-8.99,7.79-12.8l-61.03-31.43-2.68-.43c-.26,2.1-4.53,14.33-5.32,14.74-1.95,1.03-7.11-.08-8.25-1.99-2.07-3.45,5.29-19.28,7.73-23.41,7.84-13.25,22.15-24.54,37.96-31.35,9.5-4.09,19.9-5.96,29.6-9.59-11.1-20.74-14.27-45.61-5.73-67.42,2.46-6.27,10.65-20.44,15.48-25.48,2.3-2.41,4.32-4.37,8.26-2.76,7.49,3.08-5.33,12.04-5.07,16.41Z" fill="#096769"/>
    <path d="M244.83,284.4c-1.42.99-4.01-.38-4.82,2.91-1.13,4.6-.7,30.87.34,35.91.33,1.63,1.27,3.19,2.04,4.69,9.31,18.38,28.43,37.88,38.22,56.65,2.42,10.41-.07,18.93-14.19,20.23-21.15,1.95-71.2,1.7-92.68.04-13.77-1.07-18.48-10.53-14.82-20.84l41.18-59.52c.73-3.74.62-36.07-.57-37.68-.84-1.14-3.77-1.45-5.1-3.23-2.6-3.49-1.45-8.64,3.84-9.5,4.82-.79,38.75-.76,43.68,0,5.77.9,5.8,8.31,2.9,10.33Z" fill="#0a6869"/>
    <path d="M389.45,722.5c-8.63-21.66,12.55-9.96,21.1-18.94,7.15-7.5-.04-17.11,2.48-21.31,5.79-2.1,15.68-12.98,21.64-11.55,1.96.47,5.66,6.14,10.89,8.09,9.38,3.5,16.53,3.02,23.43-3.47,3.02-2.85,8.53-13.63,9.33-14.09,1.12-.64,4.05-.26,5.83-1,5.8-2.42,5.01-16.76,10.63-18.95,4.61-1.8,21.51,5.03,23.76,9.12,4.54,8.23-13.97,12.88-12.01,21.51,1.5,6.62,16.72,6.75,21.1,10.29,5.94,4.8-6.37,24.97-18.39,20.54-5.48-2.02-7.48-12.25-14.75-2.09-1.4,1.96-7.24,13.11-6.82,14.69,1.47,5.61,17.81,5.16,17.09,11.94-.16,1.51-13.6,19.77-15.17,20.37-2.52.96-3.96.59-6.44.05-2.95-.65-30.53-12.39-32.17-13.85-5.96-5.27,3.12-8.34,4.62-12.18,4.21-10.76-14.15-18.84-22.61-10.18-4.35,4.46-.72,13.99-5.99,15.32-2.95.75-16.84-3.53-21.8-4.01-5.22-.51-10.53.25-15.74-.28Z" fill="#046162"/>
    <path d="M114.89,660.23c-10.77-8.98-19.97,5.98-28.53,8.2-1.67-.39-7.99-23.12-21.32-19.75-5.81,1.47-11.65,13.19-19.05,3.12-10.59-14.42,4.46-13.23,10.8-18.38,8.77-7.11-6.63-21.17-3.92-28.76l55.33-27.22c19.89,9.08-3.99,17.22-5.56,21.61-3.8,10.62,16.74,25.65,28.61,14.04,3.27-3.2,2.37-9.88,8.87-8.28,4.25,1.05,17.06,20.87,22.75,23.76,1.65,2.64,4.01,4.66.48,6.78-4.09,2.46-22.62,9.81-23.49,12.57-1.24,3.94,6.06,7.2,8.15,9.94,11.56,15.19-21.12,22.78-28.74,12.06-1.81-2.54-1.9-7.62-4.37-9.68Z" fill="#046162"/>
    <path d="M262.99,657.98c.63.83.13,3.89,1.18,5.92,8.66,16.78,18.52,3.32,28.98,7.95,6.96,3.08,7.29,17.24,1.44,20.93-9.91,6.24-29.93-7.37-27.54,13.4.61,5.3,11.78,22.14.61,23.88-9.26,1.44-25.91-2.38-36-3.15-7.38-.56-15.3,1.18-22.32-1.22-1.34-8.98,9.03-20.33-7.37-22.08-6.99-.75-16.25,3.48-19.24-4.29-1.49-3.88,1.8-15.64,5.19-18.14,5.09-3.75,14.97,5.48,22.56-1.56,6.58-6.1-2.19-14.61.21-21.08,1.19-3.19,12.28-5.42,14.72-9.17,1.96-.28,4.4,3.04,6.45,4.02,6.7,3.21,30.1,3.23,31.12,4.59Z" fill="#046162"/>
    <path d="M169.3,500.47l11.87-35.9c9.46-4.51,7.84,11.8,12.54,14.14,1.86.93,16.19.92,18.06,0,3.32-1.65,7.91-25.43,10.88-30.34,1.93-3.19,4.46-5.16,8.37-2.65l14.18,49.44,12.44-41.18c1.09-2.59,6.65-2.82,8.13-.54,4.68,7.19,6.35,21.88,10.3,30.03,6.49-5.1,7.85-18.42,12.78-23.69,7.73-8.26,15.16,17.35,18.03,18.95,3.23,1.8,14.02-.6,18.72-.65,2.89-.03,5.79,1.05,8.93,1.19,1.94.08,4.19-1.15,6.43-1.07,7.29.28,8.09,7.37,1.32,8.43-4.68.73-33.81.73-38.52,0-6.38-.98-6.87-8.69-9.39-12.43-.81-1.2.1-1.81-2.85-1.36-2.63,6.63-5.46,16.27-10.06,21.99-4.04,5.02-6.64,4.79-9.9-.73l-9.63-24.45-11.46,45.29c-.57,2.62-4.25,3.15-7,2.6-3.27-.65-13.26-45.38-15.02-51.61-.46-1.64.87-1.85-2.55-1.59-.83,3.92-4.67,21.06-8.58,22.16-2.06.58-24.15.51-26.54-.06-4.3-1.02-3.37-4.61-6.05-6.14l-11.84,42.84c-.32,1.88-4.69,2.46-6.06,1.68-4.03-2.29-15.08-70.44-15.57-79.61-3.37-.24-2.13-.14-2.52,1.6-3.35,14.82-5.89,40.1-12.83,53.21s-13.58-11.8-18.98-13.15c-15.19-1.66-33.98,1.49-48.7-.15-8.61-.96-6.52-8.37.12-8.48,2.86-.05,5.69,1.21,8.95,1.09,3.63-.13,6.86-1.14,10.24-1.21,6.95-.15,32.59-1.01,36.65,1.7,2.92,1.94,3.64,6.25,6.49,7.91l13.5-59.54c.72-2.4,2.91-7.49,6.46-7.48,2.29-.08,2.6,1.31,3.32,2.63,1.95,3.6,3.39,13.11,4.42,17.61,4.5,19.7,6.72,39.81,10.92,59.55Z" fill="#076061"/>
    <path d="M1518.12,310.19c-1.75-.41-3.33-3.18-3.34-4.78-.08-10.41,29.7-2.68,36.82-7.95,13.75-14.4,23.89-33.6,37.36-47.79,7.32-7.72,15.48-10.32,24.98-2.71,10.26,8.21,21.63,27.66,31.13,38.06,2.93,3.2,6.93,10.12,12.06,7.19,7.76-4.44,17.18-27.62,24.99-34.35,4.91-4.23,12.83-4.73,18.93-2.08,16.69,7.24,14.81,25.82,33.86,2.89,13.59-16.36,30.61-46.91,45.72-60.02,6.6-5.73,18.24-5.66,13.71,3.9-20.85,22.86-37.23,51.94-57.87,74.42-5.72,6.23-11.67,10.33-21.84,6.92-7.12-2.39-12.89-19.22-23.92-16.03-3.92,1.13-19.82,29.55-24.76,33.77-6.95,4.49-15.73,6.1-22.96,1.07-11.86-12.13-19.19-28.55-30.55-40.67-6.5-6.94-9.1-8.72-16.28-1.06-9.37,9.99-28.53,40.96-38.87,46.54-1.01.54-6.49,2.7-7.02,2.7-6.89,0-27.28,1.13-32.16,0Z" fill="#0b696a"/>
    <path d="M370.18,313.21c.34.44,8.12,3.53,10.75,5.46,21.21,15.56,17.52,47.6-9.38,57.14-44.47,15.77-75.64-32.07-45.18-56.47,2.86-2.29,11.65-5.51,12.48-7.76.76-2.08.82-20.67.23-23.17-.69-2.89-8.54-6.87-.62-9.05,11.35.07,22.44-1.96,33.54.98,1.95,3.04-1.57,4.92-2.09,7.99-.44,2.56-.52,23.82.28,24.87Z" fill="#0a6869"/>
    <path d="M232.32,217.7c2.89-4.48,7.95-20.77,15.46-17.57,3.31,1.41,9.7,21.77,11.89,26.34.54,1.13.38,3.17,2.22,2.92l16.03-76.59c8.83-15.18,12.21,8.32,13.39,14.56,4.33,22.94,5.58,46.45,9.2,69.47l7.03-14.91c2.66-2.24,7.89-.05,10.97-1.57,4.68-2.31,10.43-20.33,16.11-20.8,7.01-.58,11.18,14.93,14.74,18.7,13.52,2.52,28.54-2.15,41.75-.48,8.2,1.04,6.35,7.37,3.94,7.37h-50.17l-9-13.81c-3.57,1.53-8.25,13.25-11.26,15.67-2.8,2.25-10.14.74-11.14,1.44-2.21,1.54-7.19,27.03-10.12,31.49-6.83,10.4-9.79-11.91-10.39-15.27-4.14-22.97-5.97-46.41-9.2-69.47l-18.88,72.38c-2.17.96-4.56.88-6.54-.36l-13.82-33.75c-4.27,5.11-2.97,10.92-11.55,11.69-5.53.5-34.3.77-38.35-.22-4.89-1.19-3.9-7.22-1.55-7.22h39.24Z" fill="#096768"/>
    <path d="M1726.83,313.64c32.85-4.66,28.63,33.47,5.98,34.78-25.52,1.47-26.79-31.83-5.98-34.78Z" fill="#096567"/>
    <path d="M1608.38,332.87c8.59,6.9,7.53,24.06-4.41,28.06-31.08,10.41-34.6-37.19-2.78-31.15,1.96.37,5.76,1.94,7.19,3.09Z" fill="#096566"/>
    <path d="M309.15,88.22c14.11-2.58,12.62,8.16,15.5,14.38.54,1.17,12.08,15.02,13.1,15.75,3.89,2.83,10.43.73,14.04,6.46,7.11,11.3-11.01,18-18.58,10.05-4.54-4.77.33-8.25-.77-12.03-.6-2.05-11.51-14.14-13.99-15.11-5.09-1.99-11.88-.51-15.91-5.98-3.79-5.15-.45-12.24,6.61-13.53Z" fill="#249592"/>
    <path d="M876.83,832.14l1.35-.6c1.8,12.73,9.87,31.11,4.36,43.05-.64,1.39-4.19,2.4.73,2.19,1.74,4.43-6.79,6.05-11.33,5.3-26.23-13.46-27.24,27.45-10.86,25.22,42.11-13.01,28.96,26.62,22.53,43.11l.95,1.84v1.06c-.19,0-.97,1.04-2.02,1.05-6.26.04,1.24-11.32-.57-14.86l-3.87,12.76c-.51-.18-1.09-1.08-1.26-1.08.16-9.29,11.35-31.15,3.93-38.58-4.49-4.49-14.69.13-20.07.34-22.57.87-26.67-39.65,1.38-38.34,9.19.43,21.33,6.15,21.1-7.77-.15-9.14-4.03-25.32-6.34-34.71Z" fill="#227c79"/>
    <path d="M1656.03,388.02c24.98-4.74,25.01,26.83,1.32,22.92-14.19-2.35-11.68-20.95-1.32-22.92Z" fill="#076364"/>
    <path d="M1291.06,534.49c.15,1.04-.13,2.15,0,3.19h32.16c-1.28-2.46-7.14-3-8.45-5.31-.38-.66,2.39-4.34,2.66-4.26,2.43,2.8,19.45,10.34,19.88,12.34.3,1.37-1.51,2.26-2.48,3.1-1.19,1.02-15.22,9.74-16.16,10.04-2.02.64-4.17-3.66-3.89-4.22,1.4-2.78,8.19-3.53,9.74-6.37l-31.31-.06c-1.52.3-1.72,3.18-2.14,4.3-2.89-4.2-.58-10.22-1.27-14.88,2.04-.31,1.12,1.05,1.27,2.12Z" fill="#0d5f5f"/>
    <path d="M72.43,283.84c20.2-3.84,19.94,24.19-2.27,18.43-9.66-2.5-8.53-16.38,2.27-18.43Z" fill="#0c6264"/>
    <path d="M1719.45,142.23c-1.71-.95-.61-6.38,1.93-6.38h46.31c2.55,0,2.55,6.38,0,6.38-6.37,0-46.24,1.12-48.24,0Z" fill="#249895"/>
    <path d="M1648.5,40.33c2.52,1.29-.05,7.63.08,9.94.31,5.45,3.75,22.82.22,26.66-2,2.18-4.54,2.1-6.42-.18-2.38-2.9-2.07-35.34.07-36.42.85-.43,5.21-.43,6.05,0Z" fill="#339a97"/>
    <path d="M1562.5,137.97c-1.71,1.46-46.9-1.48-48.94-2.6-2.21-1.22-1.84-4.99.89-5.73,4.12-1.11,22.33,1.56,28.12,1.95,7.7.52,21.2-3.02,19.93,6.38Z" fill="#2a9895"/>
    <path d="M1529.15,186.79c-.66-.77-.08-3.19.54-4.17,2.57-4.09,32.29-13.59,37.58-18.96,4.61-1.13,6.99,1.71,4.91,5.15-2.14,3.54-32.54,14.52-37.95,18.68-1.08.41-4.76-.34-5.08-.71Z" fill="#299996"/>
    <path d="M1541.45,76.42c2.9-.4,30.27,21.22,35.85,23.27,2.18,3.94-.72,6.63-5.76,4.77-3.73-1.38-24.29-15.9-28.36-19.1-2.46-1.94-9.19-7.91-1.74-8.94Z" fill="#279895"/>
    <path d="M1601.24,79.37c-1.85-5.82-21.33-30.54-20.47-34.27.5-2.14,4.9-4.07,6.82-1.74,3.97,9.89,16.07,21.31,19.35,30.8,1.52,4.38-.11,6.03-5.7,5.2Z" fill="#279996"/>
    <path d="M408.15,161.7c9.48,8.58-4.73,21.98-15.71,14.58-13.52-9.1,4.98-24.29,15.71-14.58Z" fill="#0f6768"/>
    <path d="M1647.28,202.93c3.08,1.71.15,10.43.07,13.14-.2,6.77,1.36,17.4.05,23.43-.74,3.4-4.36,3.52-6.53,1.15s-1.9-33.94.72-36.77c1.1-1.19,4.53-1.58,5.69-.94Z" fill="#2a9996"/>
    <path d="M325.56,421.26c14.75-.4,14.36,22.18,2.52,22.84-13.48.75-15.37-22.49-2.52-22.84Z" fill="#176261"/>
    <path d="M78.86,435.85c18.53-4.47,16.27,21.74,6.09,23.17-14.2,1.99-13.91-21.28-6.09-23.17Z" fill="#126061"/>
    <path d="M1598.24,191.39c.65.55,1.03,1.61,1,2.38-.08,2.43-18.52,26.7-21.19,28.55-3.31,2.29-8.89.72-6.88-3.21,7.61-7.55,12.8-17.48,19.85-25.13,1.83-1.99,4.14-5.2,7.22-2.59Z" fill="#299996"/>
    <path d="M1681.54,193.26c1.96-.47,3.21.61,4.55,1.52,2.04,1.39,17.18,23.6,18.23,26.43,1.15,3.09,1.36,4.02-2.39,6-1.72.25-2.75-1.19-3.64-2.13-2.89-3.06-16.97-23.29-18.17-26.46-.62-1.65-1.21-4.72,1.41-5.36Z" fill="#289996"/>
    <path d="M404.36,424.12c15.3-2.57,16.27,20.02,3.44,21.06-15.15,1.23-13.9-19.31-3.44-21.06Z" fill="#166363"/>
    <path d="M62.14,358.25c4.41-1.07,11.05-.14,12.66,3.97s2.09,16.38-4.2,17.9c-18.93,4.59-16.71-19.88-8.46-21.87Z" fill="#106466"/>
    <path d="M1744.84,91.35c1.94-.22,5.05.99,5.2,2.49.48,4.56-28.85,14.08-33.23,18.06-4.78,1.94-8.09-.91-5.76-4.77.87-1.44,31.69-15.55,33.78-15.78Z" fill="#289996"/>
    <path d="M369.63,512.35c15.5-2.58,13.3,17.76,7.28,20.96-14.77,7.84-20.75-18.71-7.28-20.96Z" fill="#155e5e"/>
    <path d="M131.58,333.78c18.92-4.81,16.84,27.76.41,21.56-7.16-2.7-7.4-19.79-.41-21.56Z" fill="#166364"/>
    <path d="M1707.54,57.43c.81.69,1.53,2.32,1.3,3.27-.35,1.48-17.42,24.94-18.96,25.75-2.39,1.25-5.82-.45-6.24-2.32-.32-1.42,14.54-22.88,16.69-25.22,1.7-1.86,4.82-3.53,7.22-1.49Z" fill="#299a96"/>
    <path d="M1711.27,171.02c1.98-.5,3.49.17,5.25.73,2.77.89,27.31,12.82,28.04,14.04,2,3.3.13,6.17-4.58,4.88-3.7-1.02-22.6-10.23-26.09-12.49-2.01-1.3-8.38-5.71-2.62-7.16Z" fill="#289996"/>
    <path d="M82.46,545.37c1.24.08,9.2,7.15,9.2,8.78,0,3.08-7.77,7.11-10.51,8.93-.82,0-9.77-9.84-9.54-10.93.2-.94,9.79-6.86,10.85-6.79Z" fill="#126a6a"/>
    <path d="M483.39,597.4c2.66-1.29,10.69,3.2,11.26,4.76s-4.16,9.55-5.81,9.87c-3.87-.96-11.88-4.53-10.2-8.38.15-.35,4.36-6.06,4.75-6.25Z" fill="#116766"/>
    <path d="M134.12,539.97c11.64-3.33,12.21,10.31,3.34,11.38-6.67.81-9.19-9.71-3.34-11.38Z" fill="#125f5e"/>
    <path d="M396.98,674.8c-16.03,4.26-10.92-4.45-11.56-13.81,6.34,2.94,8.34,8.87,11.56,13.81Z" fill="#0f5657"/>
    <path d="M328.8,534.49v-15.95c4.74-.23,5.92-.25,6.49,3.67.69,4.75,1.78,14.12-6.49,12.28Z" fill="#165756"/>
    <path d="M386.07,466.46c5.02-.86,4.03,16.52,1.25,17-6.14,1.06-6.26-16.14-1.25-17Z" fill="#1f5a59"/>
    <path d="M423.87,503.79c.67.89,1.59,15.81-2.86,15.67-5.04-.15-4.13-9.81-3.41-13.1.67-3.03,4.77-4.55,6.27-2.57Z" fill="#115b5b"/>
    <path d="M104.96,393.11v15.95c0,.21-5.15.21-5.15,0v-15.95c0-.21,4.22.14,5.15,0Z" fill="#114e4e"/>
    <path d="M105.62,313.38c5.62-.97,6.04,12.89,2.54,13.8-6.83,1.79-5.26-13.34-2.54-13.8Z" fill="#225d5d"/>
    <path d="M405.66,126.55c3.14,2.6,1.22,8.32-4.04,8.21-10.21-.2-2.91-13.97,4.04-8.21Z" fill="#156867"/>
    <path d="M376.39,412.24c.75.59,1.27,16.72-3.19,15.94-2.58-.45-2.66-15.38-1.94-15.94.19-.15,4.95-.15,5.13,0Z" fill="#105354"/>
    <path d="M447.48,556.54c-3.46-2.86-.88-8.85,4.98-7.68,10.11,2.02.97,12.6-4.98,7.68Z" fill="#1b5e5c"/>
    <path d="M82.62,509.14c5.89-.89,7.93,8.05,3.51,9.28-9.39,2.61-8.41-8.54-3.51-9.28Z" fill="#175b5b"/>
    <path d="M310.33,552.68c7.26-2.01,11.28,5.52,5.61,7.88-7.23,3-10.52-6.52-5.61-7.88Z" fill="#0f5a59"/>
    <path d="M1325.79,373.97v46.77c-42.95-4.19-86.11-8.09-129.3-10.62-122.78-7.19-248.76-7.5-371.78-3.21-55.58,1.94-111.16,4.89-166.53,10.2-.95.55-2.63-.82-2.63-1.16v-41.99h670.24Z" fill="#f2f7e7"/>
    <path d="M682.57,149.67c1.13,61.91,1.13,127.98,0,190.28-9.41-.09-18.89.07-28.31,0-2.57-41.52-.88-83.32-1.23-124.96-.02-2.76-1.37-5.37-1.4-8.41-.29-31.72.33-63.48.07-95.19l15.67,21.59c4.86,3.72,10.12,14.04,15.19,16.68Z" fill="#f2f7e7"/>
    <path d="M591.23,151.79c4.77-7.84,13.9-17.61,19.52-25.86,3.7-5.43,8.34-11.84,10.09-17.72l1.33,9.08c-1.94,59.04-2.61,118.38-3.97,177.43-.36,15.41.37,30.89.06,46.29-5.97-1.52-23.25,1.66-27.02-1.07-1.19-61.88-1.2-126.22,0-188.16Z" fill="#f2f7e7"/>
    <path d="M689,158.17c1.61.08,2.77.56,3.87,1.54,8.65,7.73,16.13,16.41,25.72,23.44v156.8h-29.59v-181.78Z" fill="#f2f7e7"/>
    <path d="M584.8,161.36v178.59h-29.59v-150.42c10.61-7.7,17.59-18.1,26.64-26.82.8-.77-.06-1.99,2.95-1.35Z" fill="#f2f7e7"/>
    <path d="M754.61,209.2c1.19,43.02,1.17,87.8,0,130.75-5.66,1.55-21.37-1.14-28.3,0v-150.95c9.54,6.59,17.5,14.85,28.3,20.2Z" fill="#f2f7e7"/>
    <path d="M844.34,681.99l-53.18,20.44c-3.42.34-6.59-.65-9.8-1.35-5.81-1.27-33.39-8.78-36.97-10.91-2.9-1.72-3.56-5.61-3.9-8.47-1.16-9.6-.05-23.57-1.36-43.62-.23-3.48.39-5.19,4.28-7.1,13.54-6.65,12.18-4.85,46.67-17.82l50.69,11.18c1.2.51,1.75,1.38,2.35,2.31" fill="#f2f7e7"/>
    <polygon points="547.5 339.95 520.48 339.95 520.48 218.23 547.5 197.51 547.5 339.95" fill="#f2f7e7"/>
    <polygon points="761.05 214.51 790.63 230.46 790.63 339.95 761.05 339.95 761.05 214.51" fill="#f2f7e7"/>
    <path d="M878.04,595.55c.17-1.17.02-2.33,1.34-3.14l43.12-16.52,54.54,8.66.19,51.51-1.92,3.73-51.63,21.2-43.12-14.24" fill="#f2f7e7"/>
    <path d="M1008.64,553.59c2.77-2.59,21.01-9.69,25.96-11.51,8.91-3.27,13.91-6.1,24.11-5.33,6,.46,42.8,5.62,45.49,7.57,1.41,1.03,1.53,3.96,1.67,5.54,1.04,11.64,1.38,33.35.02,44.75-.21,1.79.16,3.54-1.93,4.78l-51.61,20.11c-14.73-4.06-29.71-8.26-43.67-13.78" fill="#f2f7e7"/>
    <path d="M1225.3,568.39c-15.83,3.96-30.44,13.01-45.71,18.03-2.36.78-5.18,2.1-7.69,2.25-7.41.46-36.94-12.34-44.87-15.91.21-16.5,1.07-25.11,1.27-49.99l39.99-16.93c18.25,1.26,36.46,4.33,54.55,6.88l1.98,1.55.48,54.11Z" fill="#f2f7e7"/>
    <path d="M514.05,224.08v115.87h-29.59c.36-1.97,1.28-3.75,1.35-5.79,1.17-31.19-3.32-62.18-.09-93.39l28.32-16.69Z" fill="#f2f7e7"/>
    <polygon points="827.94 249.59 827.94 339.95 798.35 339.95 798.35 235.77 827.94 249.59" fill="#f2f7e7"/>
    <path d="M1302.64,248l25.72-18.6c1.24,8.28-1.08,17.03-1.33,24.94-.9,28.88,1.62,57.91-1.25,86.68-.46.53-1.64-1.06-1.92-1.06h-21.23v-91.95Z" fill="#f2f7e7"/>
    <polygon points="1294.92 253.85 1294.92 339.95 1264.05 339.95 1264.05 270.32 1294.92 253.85" fill="#f2f7e7"/>
    <path d="M835.66,255.44c-.03-.48-3.3-1.85.62-1.58l29.02,12.39,1.24,73.7h-30.87c-1.16-27.91,1.56-56.69,0-84.51Z" fill="#f2f7e7"/>
    <polygon points="1387.54 339.95 1360.53 339.95 1359.26 241.1 1387.54 273.51 1387.54 339.95" fill="#f2f7e7"/>
    <path d="M903.84,279.36v60.59h-30.87v-70.16c10.88,1.43,20.42,6.89,30.87,9.57Z" fill="#f2f7e7"/>
    <path d="M1257.61,274.04v65.91h-33.45v-52.62c4.43-3.64,11.53-4.84,17.18-7.06,5.45-2.14,10.54-5.73,16.26-6.23Z" fill="#f2f7e7"/>
    <polygon points="941.15 289.99 941.15 339.95 911.56 339.95 911.56 282.55 941.15 289.99" fill="#f2f7e7"/>
    <path d="M1426.14,339.95h-32.16v-59.53c2.49-.48,2.48.75,3.62,1.79,8.89,8.05,17.89,15.62,28.54,22.13v35.61Z" fill="#f2f7e7"/>
    <polygon points="1217.73 288.93 1217.73 339.95 1185.57 339.95 1185.57 297.43 1217.73 288.93" fill="#f2f7e7"/>
    <polygon points="979.74 298.49 979.74 339.95 948.87 339.95 948.87 292.12 979.74 298.49" fill="#f2f7e7"/>
    <polygon points="1177.85 299.56 1177.85 339.95 1145.69 339.95 1145.69 304.87 1177.85 299.56" fill="#f2f7e7"/>
    <polygon points="1018.33 304.87 1018.33 339.95 987.46 339.95 987.46 300.62 1018.33 304.87" fill="#f2f7e7"/>
    <rect x="1064.65" y="308.06" width="34.73" height="31.89" fill="#f2f7e7"/>
    <polygon points="1058.21 308.06 1058.21 339.95 1026.05 339.95 1026.05 305.94 1058.21 308.06" fill="#f2f7e7"/>
    <polygon points="1137.97 305.94 1137.97 339.95 1105.81 339.95 1105.81 308.06 1137.97 305.94" fill="#f2f7e7"/>
    <rect x="656.84" y="371.84" width="667.66" height="1.06" fill="#077069"/>
    <path d="M1433.86,310.19c3.64,3,28.14,14.49,29.32,16.16,1.45,2.05-.49,10.56.27,13.61h-29.59v-29.77Z" fill="#f2f7e7"/>
    <path d="M682.57,149.67c.06.03,1.06-1.98,1.29-.53v191.34c-.41,1.56-1.22-.53-1.29-.53v-190.28Z" fill="#11655b"/>
    <path d="M591.23,339.95c-1.13-.82-1.54-1.16-1.36-2.55v-181.99c-.63-1.82.7-2.53,1.36-3.61v188.16Z" fill="#0b6360"/>
    <path d="M689,158.17v181.78-181.78Z" fill="#036c64"/>
    <path d="M1288.49,537.68v5.32h-34.73c-.42-1.39.24-5.32,1.93-5.32h32.8Z" fill="#0c696b"/>
    <path d="M754.61,339.95v-130.75l1.36,2.55-.02,125.61c-.18,1.18.56,2.08-1.34,2.6Z" fill="#0c6660"/>
    <path d="M761.05,339.95v-125.44,125.44Z" fill="#106357"/>
    <polygon points="1490.46 339.95 1469.88 339.95 1470.53 330.38 1490.46 339.95" fill="#f2f7e7"/>
    <path d="M887.12,856.59c-1.03,8.66,4.25,11.79-2.57,19.13,2.34-6.59,1.51-13.62.01-20.2.19-.24,2.44,1.13,2.56,1.07Z" fill="#227c79"/>
    <path d="M1615.24,488.78c-.17-6.56.47-13.02-1.2-19.51l12.68-5.55c-7.24-21.64-8.3-44.2-10.18-66.36,7.53,7.44,10.29,22.71,17.38,29.74,3.06,3.04,10.56,2.57,10.98,3.86-2.23,19.23-.86,38.53-1.36,57.82h-28.3Z" fill="#fbf6e0"/>
    <path d="M1702.72,490.91l-25.73-1.06c-.45-17.71-.06-35.46-1.27-53.15,4.55,1.62,5.4,14.18,7.63,15.47,1.97,1.15,9.09.58,9.09-1.12v-17.01c0-4.27,2.75-11.69,3.47-16.27l10.67-22.53c-.18,31.93-3.11,63.71-3.85,95.67Z" fill="#fbf6e0"/>
    <path d="M1737.46,494.09c-3.5.19-6.89-.59-10.29-1.06-1.56-.22-3.5.17-5.15,0,2.65-16.6,3.4-33.83,6.55-50.41.21-1.1.51-3.97,2.44-3.81.43,18.48,4.23,36.89,6.45,55.27Z" fill="#f8f5e2"/>
    <path d="M1599.81,489.84c-4.84-.46-10.4,1.98-9.01-3.19.6-4.07.39-13.34,1.49-16.31,1.2-3.23,5.72-2.5,6.3,1.9.73,5.5.72,11.99,1.22,17.6Z" fill="#f7f4e4"/>
    <path d="M1658.98,489.84c.45-6.39-.75-12.93,1.93-19.15.23,5.12,1.52,10.36,1.98,15.43.18,1.97,1.04,4.36-2.62,3.72h-1.29Z" fill="#e3ece8"/>
    <path d="M1642.26,632.82c-2.49-9.72-16.01-1.28-22.66-.66-21.92,2.05-22.79-16.24-6.32-16.96,8.6-.38,14.53,4.61,22.49,2.66,8.67-2.12,2.85-11.14,6.49-14.79,4.25-4.26,34.61-11.98,41.92-16.48,9.45,1.62,18.61,6.21,27.5,9.02-12.44,16,11.9,21.3,27.41,18.38,4.37-.82,5.5-3.42,11.71-2.91,2.59.21,14.74,4.55,17.58,5.79,1.39.61,3.18.04,2.52,2.12-.99,3.11-61.53,25.3-69.88,28.38-19.34,7.11-38.85,14.14-58.77,20-1.74-9.88,2.34-25.42,0-34.55Z" fill="#20928d"/>
    <path d="M1635.83,664.71c.01.52,2.54,1.91.02,3.21-1.9.98-3.31.48-5.21.03-6.14-1.47-16.76-6.91-23.53-9.28-30.47-10.65-73.65-23.4-100.82-37.87-1.57-.84-3.09-1.6-4.23-2.86,3.93-4.7,26.69-8.7,26.9-13.73.09-2.24-2.31-3.75-.55-6.96.93-1.7,6.43-4.96,8.7-5.59,12.33-3.41,13.97,4.92,19.5,4.53,6.22-.44,21.83-12.92,30.86-10.62l44.99,17.07c3.89,2.31,1.94,7.19.66,10.42-10.34-2.35-34.66-5.46-37.11,7.06-2.81,14.34,14.4,18.58,28.58,16.18,1.92-.32,11.22-5.76,11.22-2.42,0,10.26-.29,20.58,0,30.83Z" fill="#1f928d"/>
    <path d="M1679.77,563.02c-.42-.22-3.19-5.49-4.82-7.17-13.75-14.12-28.16.75-37.18,10.53-6.5-10.15-20.15-22.48-34.75-13.82-4.32,2.56-6.84,9.8-9.2,10.47-9.08,2.57-31.4-2.07-42.08.89-18.07-5.96-14.51-17.44,1.28-23.97,20.74-8.58,49.94-8.04,71.57-2,3.62,1.01,10.94,4.93,13.27,5.06,3.36.18,12.82-4.06,17-5.02,21.72-4.96,52.67-7.88,72.24,3.49,11.35,6.59,13.4,19.72-1.93,21.66-4.36.55-43.46.89-45.38-.11Z" fill="#f2f7e7"/>
    <path d="M1463.44,557.88c-7.4,18.28,12.73,21.35,30.16,19.07,11.2-1.47,11.45-10.65,11.01-18.01h29.59c.22,0,.37,1.98,1.85,3.21,10.78,8.97,25.16,11.68,38.07,17.54,1.45.66,3.14-.08,2.53,2.09-.76,1.33-19.19,8.64-21.22,8.64-2.97,0-8.38-4.83-14.18-4.74-5.15.08-19.42,5.79-20.98,10.16-1.29,3.61,2.55,6.76,1.81,7.76-1.32,1.78-23.68,8.37-27.36,11.5-27.84-14.22-55.49-31.62-68.58-57.24h37.31Z" fill="#20928d"/>
    <path d="M1849.38,557.88c-7.42,14.16-21.33,27.12-35.34,37.23-5.84,4.22-29.69,18.96-36.21,19.1-5.32.11-18.51-7.1-24.93-7.44,2.31-5.16,5.78-6.3,2.66-12.29-2.52-4.84-15.31-8.31-21.3-7.96s-12.49,5.61-16.64,5.38c-5.44-.3-17.25-7.36-23.9-7.45-.81-2.48,1.9-2.56,4.03-3.53,9.77-4.47,23.04-7.8,32.44-12.57,3.16-1.6,12.2-9.4,13.06-9.4h23.8c-11.59,20.17,32.86,24.95,42.23,13.11,4.97-6.28.99-7.96-1.06-14.17h41.17Z" fill="#20928d"/>
    <path d="M1714.3,567.44c-6.22,4.37-15.19,7.48-22.69,10.48-17.72,7.08-35.64,14-53.82,20.24-24.74-9.07-49.47-18.44-73.74-28.32-1.73-.7-3.54.7-2.83-2.4h37.95c1.44,0,7.79-9.38,10.2-10.7,11.8-6.47,19.74,20.07,28.1,19.07,5.98-.72,20.83-22.29,27.18-21.04,3.71.73,6.26,12.67,9.14,12.67h40.52Z" fill="#f2f7e7"/>
    <path d="M1731.96,592.13c5.55-.95,19.22,1.84,18.13,7.48-1.87,9.63-25.77,13.81-33.24,7.73-7.17-5.83,9.27-14.2,15.12-15.21Z" fill="#20928d"/>
    <path d="M201.44,131.62c.85.99-7.24,10.48-9.65,10.67-8.06.64-58.19-30.89-68.95-35.64-2.49-3.04,3.43-9.66,4.01-13.32l74.59,38.29Z" fill="#f2f7e7"/>
    <path d="M71.14,199.74c4.52-.95,54.21,29.9,62.85,32.84,1.58,2.04-3.56,13.75-8.38,12.27l-62.51-33.53c-2.05-2.89,5.07-10.95,8.04-11.57Z" fill="#f2f7e7"/>
    <path d="M120.81,130.2c-4.51-4.37-2.97-10.53-1.69-15.61,1.38-.18,2.6.15,3.91.48,6.55,1.65,49.6,25.71,56.97,30.53,1.22.8,3.91,1.93,3.44,3.52-.17.56-10.56,6.58-11.23,6.74-2.17.53-3.5.13-5.53-.3-5.56-1.2-23.52-11.84-29.2-15.22-3.64-2.17-14.48-8.02-16.67-10.14Z" fill="#f2f7e7"/>
    <path d="M138.12,213.67c1.04,1.48-.43,7.85-1.03,9.87-.37,1.24.98,1.94-1.88,1.59l-57.26-31.34c4.76-3.99,8.2-7.02,15.47-5.35,12.21,2.79,32.05,20.46,44.7,25.23Z" fill="#f2f7e7"/>
    <path d="M158.99,161.35c-6.05,1.13-23.94,6.36-28.73,4.18-5.88-2.67-10.48-20.78-11.14-26.49l39.87,22.31Z" fill="#f2f7e7"/>
    <path d="M125.28,177.54c2.91,1.4,13.43,24.86,11.83,26.34l-37.29-20.21c-2-1.98,4.46-3.46,6.13-3.94,3.78-1.07,16.31-3.64,19.32-2.19Z" fill="#f2f7e7"/>
    <path d="M232.32,283.61v43.05c0,3.53,24.03,32.83,21.87,34.54-9.34,1.34-17.98,2.94-27.64,2.12-8.84-.75-17.48-6.36-25.74-6.36-4.82,0-10.05,2.65-14.79,3.18-1.74-1.37,21.06-28.97,22.58-35.01,1.99-7.93.83-23.77.63-32.53-.1-4.37-4.37-8.99,3.16-8.99h19.94Z" fill="#f2f7e7"/>
    <path d="M198.49,378.43c11.02-2.75,12.23,8.37,4.6,10.23-8.91,2.17-10.75-8.69-4.6-10.23Z" fill="#f6f4e3"/>
    <path d="M240.95,379.43c7.57-1.74,9.32,7.89,3.31,9.27-7.57,1.74-9.32-7.89-3.31-9.27Z" fill="#f8f6e6"/>
    <path d="M360.96,285.74v24.98c0,.38,2.15,6.77,2.49,7.25,2.29,3.23,22.86,10.08,20.67,19.86h-59.18c-4.11-9.88,20.66-18.82,21.62-20.93,2.4-5.26-1.34-29.86.24-31.16h14.16Z" fill="#f2f7e7"/>
    <path d="M341.29,346.52c9.59-2.38,10.5,9.47,1.09,8.34-5.7-.69-6.22-7.06-1.09-8.34Z" fill="#f4f2e5"/>
    <path d="M372.42,357.93c-3.32,1.96-8.59-2.32-6.2-5.12,3.12-3.66,10.64,2.5,6.2,5.12Z" fill="#eef2e8"/>
    <path d="M310.34,93.44c5.88-1.61,9.42,5.79,3.38,7.17-6.99,1.61-8.45-5.78-3.38-7.17Z" fill="#f1f2e5"/>
    <path d="M341.27,125.33c5.76-1.17,7.94,6.82.98,7.36-6.52.51-5.29-6.49-.98-7.36Z" fill="#f6f5e8"/>
    <path d="M73.58,290.09c5.56-1.47,7.6,3.98,4.44,5.81-5.59,3.24-9.38-4.51-4.44-5.81Z" fill="#f2f3ec"/>
    <path d="M399.07,164.62c5.81-.79,5.14,8.97-1.41,7.36-3.6-.88-1.86-6.92,1.41-7.36Z" fill="#e9eee6"/>
    <path d="M325.6,426.07c6.58-1.72,5.46,11.98,2.55,12.74-6.58,1.72-5.46-11.98-2.55-12.74Z" fill="#f7f7eb"/>
    <path d="M80.54,439.88c6.86-3.58,6.48,14.29,3.18,14.87-5.68,1-5.18-13.83-3.18-14.87Z" fill="#f4f1e4"/>
    <path d="M409.85,439.88h-6.44c-2.25-14.48,8.68-14.51,6.44,0Z" fill="#f7f5ea"/>
    <path d="M64.48,362.29c7.43-1.83,8.25,13.84,1.24,13.86-5.13,0-4.01-13.17-1.24-13.86Z" fill="#eff0e4"/>
    <path d="M375.11,517.48c-.41,2.11,1.84,13.63-3.19,12.76-5.19-3.27-5.72-14.59,3.19-12.76Z" fill="#f7f6e9"/>
    <path d="M138.12,339.16c2.45,2.8,2.01,13.35-2.91,12.48-4.01-.7-2.53-18.7,2.91-12.48Z" fill="#ebecde"/>
    <path d="M793.21,695.01l-1.03-41.97c0-.33-.34-4.35-.09-5.2.54-2.54,39.55-15.71,44.86-18.74.36,14.32.9,42.06,2.55,48.3,0,0-1.3.79-3.31,1.55l-42.96,16.06Z" fill="#0c6a6b"/>
    <path d="M785.49,695.01c-5.29-1.2-38.59-8.41-38.59-11.16v-45.18c12.82,3.15,38.59,11.16,38.59,11.16v45.18Z" fill="#20918c"/>
    <path d="M970.74,590.83v45.71l-43.74,17.01v-45.18c13.22-6.89,28.39-14.87,43.74-17.54Z" fill="#0c696b"/>
    <path d="M919.28,653.55l-33.45-11.16v-43.05c10.81,3.52,23.13,4.17,33.45,7.97v46.24Z" fill="#20918c"/>
    <path d="M1055.64,565.32l42.45-17c-.89,6.32,3.7,45.96.5,47.94l-42.94,15.84v-46.77Z" fill="#0d696b"/>
    <path d="M1047.92,612.09l-33.45-9.57v-43.58c4.09,2.12,33.45,5.53,33.45,7.97v45.18Z" fill="#20928d"/>
    <path d="M1175.28,581.26v-47.84l41.12-15.49c.79-.93,2.62,1.01,2.62,1.14v44.65l-43.74,17.54Z" fill="#0c696b"/>
    <path d="M1166.28,535.2l-2.07,45.01-34.27-11.64c.29,2.11.5-9.54,2.91-39.75l33.44,6.37Z" fill="#20918c"/>
    <path d="M705.05,467.52c-1.82-.21-2.19.61-1.89-1.58" fill="#2c8c85"/>
  </g>
  <text transform="translate(98.5 831.54) scale(1.11 1)" fill="#083832" font-family="Poppins-Bold, Poppins" font-size="56.93" font-weight="700"><tspan x="0" y="0" xml:space="preserve"> Complex </tspan><tspan x="0" y="68.32" xml:space="preserve">  Medical</tspan><tspan x="0" y="136.63" xml:space="preserve">   Data </tspan></text>
  <text transform="translate(1488.31 760.78) scale(1.11 1)" fill="#083832" font-family="Poppins-Bold, Poppins" font-weight="700"><tspan font-size="53.82"><tspan x="0" y="0" xml:space="preserve">    Better</tspan></tspan><tspan font-size="53.82"><tspan x="0" y="64.59" xml:space="preserve">    Health</tspan></tspan><tspan font-size="51.58"><tspan x="0" y="126.49" xml:space="preserve"> Outcomes</tspan></tspan></text>
  <text transform="translate(636.83 486.4) scale(.93 1)" fill="#083832" font-family="Poppins-Bold, Poppins" font-size="52.56" font-weight="700" letter-spacing="-.02em"><tspan x="0" y="0" xml:space="preserve">    Clear Communication</tspan><tspan x="0" y="63.07" xml:space="preserve">    </tspan></text>
</svg>