<svg xmlns="http://www.w3.org/2000/svg" viewBox="0 0 711.01 306.52"><defs><style>.cls-1{fill:#6cecd6;}.cls-2{fill:#959595;}.cls-3{fill:#dbfad8;}</style></defs><g id="Logo"><path class="cls-1" d="M155.09,629.92h2.38l2.63,6.91,2.66-6.91h2.38l-3.44,8.65,3.41,8.2,6.72-17h2.75l-8.32,19.88h-2.18l-4-9.38-4,9.38H154l-8.29-19.88h2.72l6.75,17,3.38-8.2Z" transform="translate(-144.5 -343.3)"/><path class="cls-1" d="M197.26,629.81v19.88h-2.52v-9.05h-11v9.05h-2.52V629.81h2.52v8.59h11v-8.59Z" transform="translate(-144.5 -343.3)"/><path class="cls-1" d="M219.6,647.45v2.24H206.11V629.81h13.24v2.24H208.63v6.44H218v2.1h-9.32v6.86Z" transform="translate(-144.5 -343.3)"/><path class="cls-1" d="M227.13,649.69V629.81h8.52a5.32,5.32,0,0,1,2.4.54,6.35,6.35,0,0,1,1.91,1.46,6.82,6.82,0,0,1,1.26,2,6.24,6.24,0,0,1,.45,2.31,6.79,6.79,0,0,1-.52,2.61,6,6,0,0,1-1.46,2.1,5.15,5.15,0,0,1-2.2,1.2l4.82,7.62h-2.86l-4.53-7.14h-5.27v7.14Zm2.52-9.38h6a3,3,0,0,0,1.81-.58,3.88,3.88,0,0,0,1.2-1.52,4.9,4.9,0,0,0,.44-2.05,4.28,4.28,0,0,0-.51-2.06,4.12,4.12,0,0,0-1.31-1.49,3,3,0,0,0-1.79-.56h-5.86Z" transform="translate(-144.5 -343.3)"/><path class="cls-1" d="M263.11,647.45v2.24H249.62V629.81h13.24v2.24H252.14v6.44h9.32v2.1h-9.32v6.86Z" transform="translate(-144.5 -343.3)"/><path class="cls-1" d="M281.82,649.69V629.81h8.29a5.32,5.32,0,0,1,2.4.54,6.35,6.35,0,0,1,1.91,1.46,6.82,6.82,0,0,1,1.26,2,6.24,6.24,0,0,1,.45,2.31,7,7,0,0,1-.73,3.1,6.23,6.23,0,0,1-2,2.38,5.3,5.3,0,0,1-3.08.91h-5.93v7.14Zm2.52-9.38h5.79a3,3,0,0,0,1.81-.56,3.81,3.81,0,0,0,1.2-1.52,4.89,4.89,0,0,0,.44-2.07,4.33,4.33,0,0,0-.51-2.11,3.83,3.83,0,0,0-1.31-1.47,3.16,3.16,0,0,0-1.79-.53h-5.63Z" transform="translate(-144.5 -343.3)"/><path class="cls-1" d="M303.35,649.69V629.81h8.51a5.36,5.36,0,0,1,2.41.54,6.31,6.31,0,0,1,1.9,1.46,6.82,6.82,0,0,1,1.26,2,6.24,6.24,0,0,1,.45,2.31,6.61,6.61,0,0,1-.52,2.61,6,6,0,0,1-1.45,2.1,5.21,5.21,0,0,1-2.2,1.2l4.82,7.62h-2.86l-4.54-7.14h-5.26v7.14Zm2.52-9.38h6a3,3,0,0,0,1.81-.58,3.88,3.88,0,0,0,1.2-1.52,4.89,4.89,0,0,0,.43-2.05,4.26,4.26,0,0,0-1.82-3.55,3,3,0,0,0-1.79-.56h-5.85Z" transform="translate(-144.5 -343.3)"/><path class="cls-1" d="M333.9,649.83a8.52,8.52,0,0,1-3.81-.84,9.14,9.14,0,0,1-2.95-2.29,10.41,10.41,0,0,1-1.92-3.24,10.53,10.53,0,0,1-.67-3.71,10.18,10.18,0,0,1,.71-3.8,10.66,10.66,0,0,1,2-3.22,9.62,9.62,0,0,1,3-2.24,8.86,8.86,0,0,1,7.53,0,9.39,9.39,0,0,1,2.94,2.33,11,11,0,0,1,1.91,3.25,10.44,10.44,0,0,1-2,10.68,9.41,9.41,0,0,1-3,2.22A8.58,8.58,0,0,1,333.9,649.83Zm-6.81-10.08a9,9,0,0,0,.49,2.92,8.18,8.18,0,0,0,1.39,2.51,6.72,6.72,0,0,0,2.16,1.73,6.38,6.38,0,0,0,5.65,0,6.64,6.64,0,0,0,2.14-1.8,8,8,0,0,0,1.35-2.52,8.86,8.86,0,0,0,.46-2.82,8.73,8.73,0,0,0-.49-2.92,8.18,8.18,0,0,0-1.4-2.5,6.69,6.69,0,0,0-2.16-1.74,6.42,6.42,0,0,0-5.61,0,6.56,6.56,0,0,0-2.14,1.78,8.41,8.41,0,0,0-1.36,2.5A8.7,8.7,0,0,0,327.09,639.75Z" transform="translate(-144.5 -343.3)"/><path class="cls-1" d="M350.86,649.69V629.81H364v2.24H353.38v6.63h8.94v2.1h-8.94v8.91Z" transform="translate(-144.5 -343.3)"/><path class="cls-1" d="M384.77,647.45v2.24H371.28V629.81h13.24v2.24H373.8v6.44h9.32v2.1H373.8v6.86Z" transform="translate(-144.5 -343.3)"/><path class="cls-1" d="M404,634a3.91,3.91,0,0,0-.9-.76,8.25,8.25,0,0,0-1.26-.66,9,9,0,0,0-1.52-.47,8.09,8.09,0,0,0-1.72-.18,5.42,5.42,0,0,0-3.39.86,2.86,2.86,0,0,0-1.09,2.37,2.37,2.37,0,0,0,.56,1.68,4,4,0,0,0,1.72,1c.77.26,1.76.53,2.95.81a20.2,20.2,0,0,1,3.59,1.09,5.57,5.57,0,0,1,2.32,1.72,4.62,4.62,0,0,1,.81,2.86,5.32,5.32,0,0,1-.54,2.47A4.89,4.89,0,0,1,404,648.5a6.59,6.59,0,0,1-2.3,1,11.67,11.67,0,0,1-2.85.33,13.14,13.14,0,0,1-2.95-.33,12.2,12.2,0,0,1-2.73-.93,11.74,11.74,0,0,1-2.41-1.54l1.2-2.13a6.93,6.93,0,0,0,1.16.94,11.79,11.79,0,0,0,1.63.85,11.09,11.09,0,0,0,2,.63,9.91,9.91,0,0,0,2.18.24,6.07,6.07,0,0,0,3.31-.77,2.51,2.51,0,0,0,1.17-2.24,2.43,2.43,0,0,0-.65-1.79,5.11,5.11,0,0,0-1.95-1.12c-.86-.29-1.9-.59-3.14-.89a21,21,0,0,1-3.38-1.1,4.77,4.77,0,0,1-2.06-1.58,4.31,4.31,0,0,1-.69-2.54,5.39,5.39,0,0,1,.93-3.21,5.55,5.55,0,0,1,2.54-2,9.52,9.52,0,0,1,3.67-.67,10.55,10.55,0,0,1,2.51.28,9.65,9.65,0,0,1,2.17.78,10.13,10.13,0,0,1,1.85,1.2Z" transform="translate(-144.5 -343.3)"/><path class="cls-1" d="M425.12,634a3.91,3.91,0,0,0-.9-.76,8.25,8.25,0,0,0-1.26-.66,9,9,0,0,0-1.52-.47,8.09,8.09,0,0,0-1.72-.18,5.42,5.42,0,0,0-3.39.86,2.86,2.86,0,0,0-1.09,2.37,2.37,2.37,0,0,0,.56,1.68,4,4,0,0,0,1.72,1c.77.26,1.76.53,3,.81a20.2,20.2,0,0,1,3.59,1.09,5.57,5.57,0,0,1,2.32,1.72,4.62,4.62,0,0,1,.81,2.86,5.32,5.32,0,0,1-.54,2.47,4.89,4.89,0,0,1-1.53,1.73,6.59,6.59,0,0,1-2.3,1,11.67,11.67,0,0,1-2.85.33,13.3,13.3,0,0,1-3-.33,12.55,12.55,0,0,1-2.73-.93,11.94,11.94,0,0,1-2.4-1.54l1.2-2.13a6.93,6.93,0,0,0,1.16.94,11.79,11.79,0,0,0,1.63.85,11.09,11.09,0,0,0,2,.63,9.91,9.91,0,0,0,2.18.24,6.07,6.07,0,0,0,3.31-.77,2.51,2.51,0,0,0,1.17-2.24,2.48,2.48,0,0,0-.65-1.79,5.11,5.11,0,0,0-2-1.12c-.86-.29-1.9-.59-3.14-.89a21,21,0,0,1-3.38-1.1,4.77,4.77,0,0,1-2.06-1.58,4.31,4.31,0,0,1-.69-2.54,5.39,5.39,0,0,1,.93-3.21,5.55,5.55,0,0,1,2.54-2,9.52,9.52,0,0,1,3.67-.67,10.55,10.55,0,0,1,2.51.28,9.65,9.65,0,0,1,2.17.78,10.13,10.13,0,0,1,1.85,1.2Z" transform="translate(-144.5 -343.3)"/><path class="cls-1" d="M434.58,649.69V629.81h2.52v19.88Z" transform="translate(-144.5 -343.3)"/><path class="cls-1" d="M454,649.83a8.52,8.52,0,0,1-3.81-.84,9.18,9.18,0,0,1-3-2.29,10.38,10.38,0,0,1-1.91-3.24,10.54,10.54,0,0,1-.68-3.71,10.19,10.19,0,0,1,.72-3.8,10.47,10.47,0,0,1,2-3.22,9.62,9.62,0,0,1,3-2.24,8.86,8.86,0,0,1,7.53,0,9.39,9.39,0,0,1,2.94,2.33,10.72,10.72,0,0,1,1.9,3.25,10.27,10.27,0,0,1,.68,3.66,10.41,10.41,0,0,1-2.68,7,9.41,9.41,0,0,1-3,2.22A8.58,8.58,0,0,1,454,649.83Zm-6.81-10.08a9,9,0,0,0,.49,2.92,8.18,8.18,0,0,0,1.39,2.51,6.68,6.68,0,0,0,2.15,1.73,6.4,6.4,0,0,0,5.66,0,6.75,6.75,0,0,0,2.14-1.8,8,8,0,0,0,1.35-2.52,9.15,9.15,0,0,0,.46-2.82,9,9,0,0,0-.49-2.92,8.39,8.39,0,0,0-1.4-2.5,6.69,6.69,0,0,0-2.16-1.74,6.42,6.42,0,0,0-5.61,0,6.46,6.46,0,0,0-2.14,1.78,8.41,8.41,0,0,0-1.36,2.5A8.7,8.7,0,0,0,447.21,639.75Z" transform="translate(-144.5 -343.3)"/><path class="cls-1" d="M473.5,634.45v15.24H471V629.81h2.13l12.15,15.54V629.83h2.52v19.86h-2.29Z" transform="translate(-144.5 -343.3)"/><path class="cls-1" d="M502.68,629.81h2.13l8.12,19.88h-2.69L508,643.86h-8.55l-2.24,5.83h-2.69Zm4.58,12.09-3.52-9.18-3.53,9.18Z" transform="translate(-144.5 -343.3)"/><path class="cls-1" d="M519.67,649.69V629.81h2.53v17.64h11.08v2.24Z" transform="translate(-144.5 -343.3)"/><path class="cls-1" d="M551.79,634a4.06,4.06,0,0,0-.89-.76,9.3,9.3,0,0,0-1.26-.66,9.46,9.46,0,0,0-1.53-.47,8.09,8.09,0,0,0-1.72-.18,5.42,5.42,0,0,0-3.39.86,2.86,2.86,0,0,0-1.09,2.37,2.37,2.37,0,0,0,.56,1.68,4,4,0,0,0,1.72,1c.77.26,1.76.53,2.95.81a20.2,20.2,0,0,1,3.59,1.09,5.5,5.5,0,0,1,2.32,1.72,4.62,4.62,0,0,1,.81,2.86,5.32,5.32,0,0,1-.54,2.47,4.89,4.89,0,0,1-1.53,1.73,6.62,6.62,0,0,1-2.29,1,11.75,11.75,0,0,1-2.86.33,13.14,13.14,0,0,1-2.95-.33,12.2,12.2,0,0,1-2.73-.93,11.74,11.74,0,0,1-2.41-1.54l1.2-2.13a6.93,6.93,0,0,0,1.16.94,11.79,11.79,0,0,0,1.63.85,11.09,11.09,0,0,0,2,.63,9.93,9.93,0,0,0,2.19.24,6,6,0,0,0,3.3-.77,2.52,2.52,0,0,0,1.18-2.24,2.44,2.44,0,0,0-.66-1.79,5.11,5.11,0,0,0-1.95-1.12c-.86-.29-1.9-.59-3.13-.89a20.81,20.81,0,0,1-3.39-1.1,4.77,4.77,0,0,1-2.06-1.58,4.31,4.31,0,0,1-.69-2.54,5.39,5.39,0,0,1,.93-3.21,5.53,5.53,0,0,1,2.55-2,9.44,9.44,0,0,1,3.66-.67A10.55,10.55,0,0,1,549,630a9.65,9.65,0,0,1,2.17.78,10.13,10.13,0,0,1,1.85,1.2Z" transform="translate(-144.5 -343.3)"/><path class="cls-1" d="M572.43,649.69V629.81h6.88a9.93,9.93,0,0,1,5.34,1.33,8.21,8.21,0,0,1,3.2,3.58,11.55,11.55,0,0,1,1.07,5,11.09,11.09,0,0,1-1.18,5.26,8.32,8.32,0,0,1-3.33,3.47,10,10,0,0,1-5.1,1.24Zm13.94-10a9,9,0,0,0-.83-4,6.24,6.24,0,0,0-2.39-2.71,7,7,0,0,0-3.84-1H575v15.4h4.36a6.87,6.87,0,0,0,3.87-1,6.49,6.49,0,0,0,2.38-2.77A9.24,9.24,0,0,0,586.37,639.72Z" transform="translate(-144.5 -343.3)"/><path class="cls-1" d="M604.63,649.83a8.52,8.52,0,0,1-3.81-.84,9.29,9.29,0,0,1-3-2.29,10.38,10.38,0,0,1-1.91-3.24,10.54,10.54,0,0,1-.68-3.71A10.19,10.19,0,0,1,596,636a10.47,10.47,0,0,1,2-3.22,9.62,9.62,0,0,1,3-2.24,8.86,8.86,0,0,1,7.53,0,9.39,9.39,0,0,1,2.94,2.33,10.72,10.72,0,0,1,1.9,3.25,10.27,10.27,0,0,1,.68,3.66,10.41,10.41,0,0,1-2.68,7,9.41,9.41,0,0,1-3,2.22A8.58,8.58,0,0,1,604.63,649.83Zm-6.81-10.08a9,9,0,0,0,.49,2.92,8.18,8.18,0,0,0,1.39,2.51,6.68,6.68,0,0,0,2.15,1.73,6.4,6.4,0,0,0,5.66,0,6.75,6.75,0,0,0,2.14-1.8,8,8,0,0,0,1.35-2.52,9.15,9.15,0,0,0,.46-2.82,9,9,0,0,0-.49-2.92,8.39,8.39,0,0,0-1.4-2.5,6.69,6.69,0,0,0-2.16-1.74,6.42,6.42,0,0,0-5.61,0,6.46,6.46,0,0,0-2.14,1.78,8.41,8.41,0,0,0-1.36,2.5A8.7,8.7,0,0,0,597.82,639.75Z" transform="translate(-144.5 -343.3)"/><path class="cls-1" d="M646.26,632.05H639.4v17.64h-2.52V632.05H630v-2.24h16.24Z" transform="translate(-144.5 -343.3)"/><path class="cls-1" d="M669.19,629.81v19.88h-2.52v-9.05H655.73v9.05h-2.52V629.81h2.52v8.59h10.94v-8.59Z" transform="translate(-144.5 -343.3)"/><path class="cls-1" d="M691.54,647.45v2.24H678V629.81h13.25v2.24H680.56v6.44h9.32v2.1h-9.32v6.86Z" transform="translate(-144.5 -343.3)"/><path class="cls-1" d="M716.54,629.92h2.38l2.63,6.91,2.66-6.91h2.38l-3.44,8.65,3.42,8.2,6.72-17H736l-8.32,19.88h-2.18l-3.95-9.38-4,9.38h-2.19l-8.29-19.88h2.72l6.75,17,3.39-8.2Z" transform="translate(-144.5 -343.3)"/><path class="cls-1" d="M742.72,649.69V629.81h8.51a5.36,5.36,0,0,1,2.41.54,6.48,6.48,0,0,1,1.91,1.46,6.82,6.82,0,0,1,1.26,2,6.44,6.44,0,0,1,.44,2.31,6.78,6.78,0,0,1-.51,2.61,6,6,0,0,1-1.46,2.1,5.21,5.21,0,0,1-2.2,1.2l4.82,7.62H755l-4.53-7.14h-5.27v7.14Zm2.52-9.38h6a3,3,0,0,0,1.81-.58,3.88,3.88,0,0,0,1.2-1.52,4.9,4.9,0,0,0,.44-2.05,4.28,4.28,0,0,0-.51-2.06,4.12,4.12,0,0,0-1.31-1.49,3.07,3.07,0,0,0-1.8-.56h-5.85Z" transform="translate(-144.5 -343.3)"/><path class="cls-1" d="M765.21,649.69V629.81h2.52v19.88Z" transform="translate(-144.5 -343.3)"/><path class="cls-1" d="M790.91,632.05h-6.86v17.64h-2.52V632.05h-6.86v-2.24h16.24Z" transform="translate(-144.5 -343.3)"/><path class="cls-1" d="M797.85,649.69V629.81h2.52v19.88Z" transform="translate(-144.5 -343.3)"/><path class="cls-1" d="M811.74,634.45v15.24h-2.52V629.81h2.13l12.15,15.54V629.83H826v19.86h-2.3Z" transform="translate(-144.5 -343.3)"/><path class="cls-1" d="M842.85,649.83a8,8,0,0,1-3.66-.86,9.66,9.66,0,0,1-3-2.29,11.1,11.1,0,0,1-2-3.25,10.21,10.21,0,0,1-.7-3.74,10.53,10.53,0,0,1,2.65-7,9.23,9.23,0,0,1,2.94-2.2,8.53,8.53,0,0,1,3.68-.79,8.69,8.69,0,0,1,4.76,1.2,7.77,7.77,0,0,1,2.83,3.14l-1.94,1.34a5.76,5.76,0,0,0-2.38-2.58,6.7,6.7,0,0,0-3.33-.84,5.8,5.8,0,0,0-2.74.65,6.61,6.61,0,0,0-2.12,1.75,8.24,8.24,0,0,0-1.34,2.5,9.24,9.24,0,0,0-.46,2.92,8.62,8.62,0,0,0,.52,3,7.6,7.6,0,0,0,1.47,2.49,7,7,0,0,0,2.21,1.69,6.09,6.09,0,0,0,2.71.62,6.49,6.49,0,0,0,3.25-.87A9.82,9.82,0,0,0,849.2,644v2.6A8.08,8.08,0,0,1,842.85,649.83Zm6-8.15h-4.29v-1.91H851v9.92H848.9Z" transform="translate(-144.5 -343.3)"/><path class="cls-2" d="M231.13,381.69" transform="translate(-144.5 -343.3)"/><rect class="cls-1" x="461.15" y="59.3" width="20.34" height="18.23"/><rect class="cls-1" x="283.81" y="25.24" width="20.3" height="142.89"/><rect class="cls-1" x="363.06" y="25.24" width="20.3" height="142.89"/><rect class="cls-1" x="323.11" y="58.75" width="20.3" height="109.38"/><path class="cls-1" d="M177.31,512.23V403.66h46a31.42,31.42,0,0,1,13.83,3.06A34.27,34.27,0,0,1,248.11,415a38.84,38.84,0,0,1,7.11,11.62,35.72,35.72,0,0,1,2.52,13.15,38.54,38.54,0,0,1-4.13,17.36,35,35,0,0,1-11.7,13.53,30.38,30.38,0,0,1-17.66,5.2H198.41v36.39Zm21.1-54.89h24.47a11.94,11.94,0,0,0,7-2.15,14.25,14.25,0,0,0,4.82-6.19,23.05,23.05,0,0,0,1.76-9.25,20.2,20.2,0,0,0-2.07-9.56,15.25,15.25,0,0,0-5.35-6,13.09,13.09,0,0,0-7.11-2.07H198.41Z" transform="translate(-144.5 -343.3)"/><path class="cls-3" d="M318.45,448.84a40.76,40.76,0,0,0-16.82,3.6,21.85,21.85,0,0,0-10.71,10.17v48.62H270.58V431.87h18.81v16.36a35.9,35.9,0,0,1,10.94-13,26.7,26.7,0,0,1,14-5.2,13.37,13.37,0,0,0,2.44.08,3.74,3.74,0,0,1,1.69.23Z" transform="translate(-144.5 -343.3)"/><path class="cls-3" d="M365.7,512.76a43.81,43.81,0,0,1-17.51-3.33A39.87,39.87,0,0,1,335,500.36a38.94,38.94,0,0,1-8.33-13.08,42.63,42.63,0,0,1-2.83-15.5,44,44,0,0,1,2.83-15.88,38.22,38.22,0,0,1,21.48-22,49,49,0,0,1,35.1,0,39.6,39.6,0,0,1,13.22,8.92,38.79,38.79,0,0,1,8.41,13.08,43,43,0,0,1,2.91,15.88,41.66,41.66,0,0,1-2.91,15.5,39.93,39.93,0,0,1-21.63,22.15A43.85,43.85,0,0,1,365.7,512.76Zm-20.95-41a26.43,26.43,0,0,0,2.75,12.15,20.79,20.79,0,0,0,7.57,8.4,19.7,19.7,0,0,0,10.63,3,19,19,0,0,0,10.55-3.08,22.21,22.21,0,0,0,7.57-8.39,25.66,25.66,0,0,0,2.83-12.23,25.31,25.31,0,0,0-2.83-12.08,22.24,22.24,0,0,0-7.57-8.4,19.23,19.23,0,0,0-10.7-3.07A19,19,0,0,0,355,451.15a21.65,21.65,0,0,0-7.49,8.4A26.33,26.33,0,0,0,344.75,471.78Z" transform="translate(-144.5 -343.3)"/><path class="cls-3" d="M594.33,448.84a40.8,40.8,0,0,0-16.82,3.6,21.93,21.93,0,0,0-10.71,10.17v48.62H546.47V431.87h18.8v16.36a35.9,35.9,0,0,1,10.94-13,26.73,26.73,0,0,1,14-5.2,13.48,13.48,0,0,0,2.45.08,3.71,3.71,0,0,1,1.68.23Z" transform="translate(-144.5 -343.3)"/><rect class="cls-3" x="461.15" y="87.8" width="20.34" height="80.13"/><path class="cls-3" d="M692.65,507.26q-2.74,1.22-6.35,2.52a53.41,53.41,0,0,1-7.79,2.14,43.34,43.34,0,0,1-8.49.84,27.28,27.28,0,0,1-10.55-2,16.32,16.32,0,0,1-7.57-6.29c-1.89-2.87-2.83-6.64-2.83-11.28V447.47h-10.4v-15.6h10.4v-26h20.64v26h16.82v15.6H669.71v38.79c.1,2.72.87,4.7,2.3,6a8,8,0,0,0,5.5,1.89,17.44,17.44,0,0,0,6.12-1.15c2-.77,3.72-1.45,5-2.07Z" transform="translate(-144.5 -343.3)"/><path class="cls-3" d="M739.44,512.76A44.85,44.85,0,0,1,722,509.51a39.24,39.24,0,0,1-21.71-21.85,41.46,41.46,0,0,1-2.91-15.57,42.71,42.71,0,0,1,5.12-20.65A39.27,39.27,0,0,1,717,436.32q9.4-5.67,22.56-5.67,13,0,22.32,5.68a39.21,39.21,0,0,1,14.37,14.91,41.31,41.31,0,0,1,5.05,20.15c0,1.31-.05,2.55-.15,3.71s-.21,2.14-.31,2.95H719.1a21.64,21.64,0,0,0,3.44,10.69,20.33,20.33,0,0,0,7.65,6.8,21.38,21.38,0,0,0,9.86,2.39,24,24,0,0,0,11.7-3,15.73,15.73,0,0,0,7.42-8l17.43,4.89a32.07,32.07,0,0,1-8.1,10.86,39.23,39.23,0,0,1-12.7,7.42A47.54,47.54,0,0,1,739.44,512.76Zm-21-47.55h41.9A23.31,23.31,0,0,0,757,454.82a20,20,0,0,0-7.41-6.88,21.36,21.36,0,0,0-10.25-2.46,20.6,20.6,0,0,0-10,2.46,20.16,20.16,0,0,0-7.34,6.88A23.43,23.43,0,0,0,718.49,465.21Z" transform="translate(-144.5 -343.3)"/><path class="cls-3" d="M823.39,512.76a58,58,0,0,1-19.65-3.36,42.44,42.44,0,0,1-16-9.94l7.5-13.31a52.83,52.83,0,0,0,13.91,8.57,36.18,36.18,0,0,0,13.46,2.75,19.23,19.23,0,0,0,9.56-2.06,6.72,6.72,0,0,0,3.59-6.2,5.56,5.56,0,0,0-2-4.6,17.29,17.29,0,0,0-5.73-2.72c-2.5-.75-5.54-1.63-9.1-2.64a110.14,110.14,0,0,1-14.76-5.51,23,23,0,0,1-8.94-6.94,17.49,17.49,0,0,1-3.06-10.64,22.58,22.58,0,0,1,4-13.51,26.5,26.5,0,0,1,11.32-8.83,42.21,42.21,0,0,1,17-3.17,48.77,48.77,0,0,1,16.2,2.67A38.71,38.71,0,0,1,854.74,442l-8.41,13.15A45,45,0,0,0,834.86,448a29.8,29.8,0,0,0-11.16-2.22,23.46,23.46,0,0,0-6,.76,10.08,10.08,0,0,0-4.59,2.48,6.58,6.58,0,0,0-1.76,4.89,6,6,0,0,0,1.61,4.37,13.11,13.11,0,0,0,4.89,2.86q3.29,1.2,8,2.71a137.07,137.07,0,0,1,16.21,5.49,25.41,25.41,0,0,1,10,7q3.45,4.21,3.44,11.44,0,11.73-8.71,18.36T823.39,512.76Z" transform="translate(-144.5 -343.3)"/><polygon class="cls-3" points="360.69 180.07 350.94 172.21 344.97 180.07 321.33 180.07 314.1 172.21 307.71 180.07 290.52 180.07 315.57 218.88 353.4 218.88 377.96 180.07 360.69 180.07"/><polygon class="cls-1" points="319.5 229.68 334.24 255.72 348.49 229.68 319.5 229.68"/><polygon class="cls-3" points="54.77 25.24 54.77 28.35 72.68 34.2 72.68 31.55 54.77 25.24"/><polygon class="cls-3" points="76.14 32.64 73.97 31.97 74.07 34.67 76.23 35.29 76.14 32.64"/><polygon class="cls-3" points="53.03 202.76 77.06 193.26 77.06 186.77 53.03 195.63 53.03 202.76"/><path class="cls-3" d="M252.33,520.55V467c-2.22,4.64-8,8.29-8,8.29V521a16.52,16.52,0,0,1-1.93,6.56,18,18,0,0,1-7.18,6.94C215.24,546,175.74,561,175.74,561s-11.24,4.93-14.8-4.52V362s2.15-10.78,16.86-5L236,377s8,1.95,8,8.91v7.13h.1v9c2.82,2.08,7.91,7,7.91,7s.23-9.73.16-18.43a17.87,17.87,0,0,0-.1-5.43c0-.57,0-1.13-.06-1.66-.38-9.28-9.27-11.38-9.27-11.38l-72.47-27.75s-25.76-6.83-25.76,13.15v206.8s0,14.33,23.16,9c7.4-1.69,72.54-33.48,72.54-33.48A21,21,0,0,0,252.33,520.55Z" transform="translate(-144.5 -343.3)"/></g></svg>