<svg xmlns="http://www.w3.org/2000/svg" width="24.596" height="20.943" viewBox="0 0 24.596 20.943">
  <g id="linkedin" transform="translate(0)">
    <path id="Path_2525" d="M23.024,21.621h.233l-.446-.674h0a.381.381,0,0,0,.419-.385.214.214,0,0,0,0-.026c0-.289-.174-.427-.532-.427h-.578v1.513h.217v-.659H22.6Zm-.436-.83h-.252v-.511h.32c.165,0,.354.027.354.243,0,.248-.191.269-.422.269" transform="translate(0.549 -1.327)" fill="teal"/>
    <path id="Path_2520" d="M17.72,19.5H14.639V14.676c0-1.151-.02-2.632-1.6-2.632-1.6,0-1.851,1.253-1.851,2.549V19.5H8.1V9.578h2.959v1.356H11.1a3.244,3.244,0,0,1,2.919-1.6c3.124,0,3.7,2.055,3.7,4.727ZM4.627,8.221A1.788,1.788,0,1,1,6.415,6.433,1.788,1.788,0,0,1,4.627,8.221h0M6.167,19.5H3.083V9.578H6.167ZM19.257,1.783H1.534A1.518,1.518,0,0,0,0,3.282v17.8a1.518,1.518,0,0,0,1.534,1.5H19.257a1.522,1.522,0,0,0,1.54-1.5V3.281a1.521,1.521,0,0,0-1.54-1.5" transform="translate(0 -1.782)" fill="teal"/>
    <path id="Path_2526" d="M22.637,19.451a1.418,1.418,0,1,0,.028,0h-.028m.033,2.673a1.271,1.271,0,0,1-1.3-1.222,1.243,1.243,0,1,1,2.486-.041v.02a1.217,1.217,0,0,1-1.19,1.242h-.032" transform="translate(0.527 -1.343)" fill="teal"/>
  </g>
</svg>
