<svg version="1.2" xmlns="http://www.w3.org/2000/svg" viewBox="0 0 712 280" width="712" height="280">
	<title>SVG FILE</title>
	<style>
		.s0 { fill: #959595 } 
		.s1 { fill: #6cecd6 } 
		.s2 { fill: #dbfad8 } 
	</style>
	<g id="Logo">
		<path class="s0" d=""/>
		<path fill-rule="evenodd" class="s1" d="m482.2 71.4v18.2h-20.4v-18.2z"/>
		<path fill-rule="evenodd" class="s1" d="m304.5 37.3v143.1h-20.3v-143.1z"/>
		<path fill-rule="evenodd" class="s1" d="m383.9 37.3v143.1h-20.3v-143.1z"/>
		<path fill-rule="evenodd" class="s1" d="m343.9 70.8v109.6h-20.3v-109.6z"/>
		<path class="s1" d="m32.9 181.2v-108.8h46q1.8 0 3.6 0.2 1.8 0.2 3.5 0.6 1.8 0.4 3.5 1 1.7 0.5 3.3 1.3 1.5 0.8 3 1.7 1.5 0.9 2.9 1.9 1.4 1 2.6 2.2 1.3 1.2 2.5 2.5 1.1 1.3 2.1 2.7 1 1.3 1.9 2.8 0.9 1.5 1.7 3 0.8 1.5 1.4 3.1 0.6 1.6 1.1 3.2 0.4 1.6 0.8 3.3 0.3 1.7 0.4 3.3 0.2 1.7 0.2 3.4 0 2.3-0.3 4.5-0.2 2.2-0.7 4.4-0.6 2.2-1.3 4.4-0.8 2.1-1.8 4.1-1 2-2.3 3.9-1.2 1.9-2.7 3.6-1.5 1.7-3.2 3.3-1.7 1.5-3.6 2.7-1.9 1.4-4 2.4-2.1 1-4.4 1.6-2.2 0.7-4.6 1-2.3 0.3-4.6 0.2h-25.9v36.5zm21.1-55h24.5q1 0 1.9-0.1 0.9-0.1 1.8-0.4 0.9-0.3 1.7-0.7 0.9-0.4 1.6-0.9 0.8-0.6 1.6-1.3 0.7-0.7 1.3-1.5 0.6-0.8 1.1-1.6 0.5-0.9 0.9-1.8 0.4-1.1 0.8-2.3 0.3-1.1 0.5-2.3 0.2-1.1 0.3-2.3 0.1-1.2 0.1-2.4 0.1-1.2-0.1-2.5-0.1-1.2-0.3-2.4-0.3-1.2-0.7-2.4-0.4-1.2-1-2.3-0.4-0.9-1-1.7-0.6-0.9-1.2-1.6-0.7-0.8-1.5-1.5-0.8-0.6-1.6-1.2-0.8-0.5-1.7-0.9-0.8-0.4-1.7-0.6-0.9-0.3-1.9-0.4-0.9-0.2-1.8-0.1h-23.6z"/>
		<path class="s2" d="m174.2 117.7q-2.2 0-4.3 0.2-2.2 0.2-4.3 0.7-2.1 0.4-4.2 1.1-2.1 0.7-4 1.6-1.8 0.8-3.4 1.8-1.5 1.1-2.9 2.4-1.4 1.3-2.5 2.8-1.1 1.5-2 3.2v48.7h-20.3v-79.5h18.8v16.4q0.9-1.9 2.1-3.7 1.2-1.8 2.6-3.5 1.4-1.6 2.9-3.1 1.6-1.5 3.3-2.7 1.6-1.2 3.2-2.1 1.7-0.9 3.5-1.5 1.8-0.7 3.6-1.1 1.9-0.4 3.8-0.5 0.3 0 0.6 0 0.3 0 0.6 0 0.3 0.1 0.6 0.1 0.3 0 0.6-0.1 0.2 0 0.4 0 0.3 0 0.5 0 0.2 0.1 0.4 0.1 0.2 0.1 0.4 0.2z"/>
		<path class="s2" d="m221.5 181.7q-2.2 0-4.5-0.2-2.2-0.1-4.4-0.6-2.2-0.4-4.4-1-2.1-0.7-4.2-1.5-1.9-0.8-3.7-1.8-1.7-1-3.4-2.1-1.7-1.2-3.2-2.5-1.5-1.3-2.9-2.7-1.4-1.4-2.6-3-1.2-1.5-2.3-3.1-1-1.7-1.9-3.4-0.9-1.8-1.6-3.6-0.7-1.9-1.2-3.8-0.6-1.9-0.9-3.8-0.4-2-0.5-4-0.2-2-0.2-3.9 0-2.1 0.1-4.1 0.2-2 0.6-4 0.3-2 0.9-4 0.5-1.9 1.2-3.8 1.4-3.8 3.6-7.1 2.1-3.4 4.9-6.2 2.7-2.9 6-5.1 3.4-2.2 7-3.7 4.2-1.6 8.7-2.4 4.4-0.8 8.9-0.8 4.5 0 8.9 0.8 4.5 0.8 8.7 2.4 1.8 0.8 3.6 1.7 1.8 1 3.5 2.1 1.6 1.1 3.2 2.4 1.5 1.3 2.9 2.8 1.4 1.4 2.6 2.9 1.2 1.5 2.3 3.2 1.1 1.6 1.9 3.4 0.9 1.7 1.6 3.6 0.8 1.9 1.3 3.8 0.6 2 1 4 0.3 2 0.5 4 0.2 2 0.2 4.1 0 1.9-0.2 3.9-0.2 2-0.6 4-0.3 1.9-0.9 3.8-0.5 1.9-1.3 3.8-1.4 3.7-3.6 7-2.2 3.4-4.9 6.3-2.8 2.8-6.1 5.1-3.3 2.2-7 3.8-2.1 0.8-4.3 1.5-2.1 0.6-4.3 1-2.2 0.5-4.5 0.6-2.2 0.2-4.5 0.2zm-21-41.1q0 1.6 0.2 3.2 0.1 1.6 0.5 3.1 0.3 1.5 0.9 3 0.5 1.5 1.2 2.9 0.6 1.3 1.4 2.5 0.8 1.2 1.8 2.2 1 1.1 2.1 2 1.1 1 2.3 1.7 1.2 0.8 2.4 1.3 1.3 0.6 2.7 1 1.3 0.4 2.7 0.6 1.4 0.1 2.8 0.1 1.4 0 2.8-0.2 1.4-0.1 2.7-0.5 1.4-0.4 2.6-1 1.3-0.6 2.5-1.4 1.2-0.7 2.3-1.7 1.1-0.9 2-2 1-1 1.8-2.2 0.8-1.2 1.5-2.5 0.7-1.4 1.2-2.9 0.6-1.5 0.9-3 0.4-1.6 0.6-3.1 0.1-1.6 0.1-3.2 0-1.6-0.1-3.1-0.2-1.6-0.6-3.1-0.3-1.6-0.9-3-0.5-1.5-1.2-2.9-0.7-1.3-1.5-2.5-0.8-1.1-1.8-2.2-0.9-1.1-2-2-1.1-0.9-2.3-1.7-1.2-0.8-2.5-1.4-1.3-0.6-2.7-0.9-1.3-0.4-2.7-0.6-1.4-0.2-2.8-0.2-1.4 0-2.8 0.2-1.4 0.2-2.8 0.6-1.3 0.4-2.6 1-1.2 0.5-2.4 1.3-1.2 0.8-2.3 1.7-1.1 0.9-2 2-1 1.1-1.8 2.3-0.8 1.1-1.4 2.4-0.7 1.4-1.2 2.9-0.6 1.5-0.9 3.1-0.4 1.5-0.5 3.1-0.2 1.6-0.2 3.2z"/>
		<path class="s2" d="m450.5 117.7q-2.2 0-4.4 0.2-2.1 0.2-4.3 0.7-2.1 0.4-4.1 1.1-2.1 0.7-4.1 1.6-1.7 0.8-3.3 1.8-1.6 1.1-2.9 2.4-1.4 1.3-2.5 2.8-1.2 1.5-2 3.2v48.7h-20.4v-79.5h18.9v16.4q0.9-1.9 2.1-3.7 1.2-1.8 2.6-3.5 1.3-1.6 2.9-3.1 1.6-1.5 3.3-2.7 1.5-1.2 3.2-2.1 1.7-0.9 3.5-1.5 1.7-0.7 3.6-1.1 1.8-0.4 3.7-0.5 0.3 0 0.6 0 0.4 0 0.7 0 0.3 0.1 0.6 0.1 0.3 0 0.6-0.1 0.2 0 0.4 0 0.2 0 0.4 0 0.3 0.1 0.5 0.1 0.2 0.1 0.4 0.2z"/>
		<path fill-rule="evenodd" class="s2" d="m482.2 99.9v80.3h-20.4v-80.3z"/>
		<path class="s2" d="m548.9 176.2q-2.7 1.2-6.3 2.5-1 0.4-2 0.7-0.9 0.3-1.9 0.5-1 0.3-2 0.5-0.9 0.3-1.9 0.5-1.1 0.2-2.1 0.3-1.1 0.2-2.2 0.3-1 0.1-2.1 0.1-1.1 0.1-2.1 0.1-1.4 0-2.7-0.1-1.4-0.1-2.7-0.4-1.4-0.2-2.7-0.6-1.3-0.4-2.5-0.9-1.2-0.5-2.2-1.1-1.1-0.7-2.1-1.5-0.9-0.8-1.8-1.7-0.8-0.9-1.5-2-2.8-4.3-2.8-11.3v-45.8h-10.4v-15.6h10.4v-26h20.6v26h16.9v15.6h-16.9v38.9q0.2 4 2.4 6 0.5 0.5 1.2 0.8 0.6 0.4 1.3 0.6 0.7 0.3 1.5 0.4 0.7 0.1 1.5 0.1 0.7 0 1.5-0.1 0.8-0.1 1.6-0.2 0.7-0.2 1.5-0.4 0.8-0.2 1.5-0.5c2-0.8 3.7-1.4 5-2.1z"/>
		<path class="s2" d="m595.8 181.7q-2.3 0-4.5-0.2-2.2-0.1-4.4-0.6-2.2-0.4-4.4-1-2.1-0.6-4.2-1.5-3.7-1.5-7-3.7-3.3-2.2-6.1-5-2.8-2.8-5-6.1-2.2-3.3-3.6-7-0.8-1.9-1.3-3.8-0.6-1.9-0.9-3.9-0.4-2-0.6-3.9-0.2-2-0.1-4-0.1-2.7 0.2-5.4 0.4-2.7 1-5.3 0.7-2.6 1.6-5.1 1-2.5 2.3-4.9 1.2-2.3 2.8-4.5 1.6-2.1 3.4-4.1 1.9-1.9 3.9-3.5 2.1-1.7 4.4-3 9.4-5.7 22.6-5.7 13 0 22.3 5.7 2.3 1.3 4.4 2.9 2 1.7 3.8 3.6 1.9 1.9 3.4 4 1.6 2.1 2.8 4.4 1.3 2.3 2.3 4.8 0.9 2.4 1.6 5 0.6 2.5 0.9 5.1 0.3 2.6 0.3 5.3 0 1.9-0.2 3.7-0.1 1.7-0.3 2.9h-61.8q0.1 1.5 0.3 2.9 0.3 1.4 0.7 2.7 0.5 1.4 1.1 2.7 0.6 1.2 1.4 2.4 0.7 1.1 1.5 2.1 0.9 1 1.8 1.8 1 0.9 2.1 1.6 1.1 0.8 2.2 1.4 1.2 0.5 2.4 1 1.2 0.4 2.4 0.7 1.3 0.3 2.5 0.5 1.3 0.1 2.6 0.1 1.5 0.1 3-0.1 1.6-0.2 3-0.6 1.5-0.4 2.9-1 1.5-0.5 2.8-1.3 1.3-0.6 2.4-1.4 1.1-0.9 2-1.9 1-1 1.7-2.2 0.8-1.2 1.3-2.5l17.5 4.9q-0.7 1.6-1.6 3.1-0.9 1.4-1.9 2.8-1 1.4-2.2 2.6-1.1 1.3-2.4 2.4-1.4 1.2-2.9 2.3-1.5 1.1-3.1 2-1.6 1-3.3 1.7-1.7 0.8-3.4 1.4-2 0.7-4 1.2-2.1 0.6-4.1 0.9-2.1 0.3-4.2 0.5-2 0.1-4.1 0.1zm-21.1-47.6h42q-0.1-1.4-0.4-2.8-0.2-1.3-0.6-2.6-0.5-1.3-1-2.6-0.6-1.2-1.3-2.4-0.7-1.1-1.5-2.1-0.9-1-1.8-1.8-0.9-0.9-2-1.7-1-0.7-2.2-1.3-1.1-0.6-2.4-1.1-1.2-0.5-2.5-0.8-1.3-0.3-2.7-0.4-1.3-0.2-2.6-0.2-1.3 0-2.6 0.2-1.3 0.1-2.6 0.4-1.3 0.3-2.5 0.8-1.2 0.5-2.3 1.1-1.2 0.6-2.2 1.3-1 0.8-1.9 1.7-1 0.8-1.8 1.8-0.8 1-1.5 2.1-0.7 1.2-1.3 2.4-0.6 1.3-1.1 2.6-0.4 1.3-0.7 2.6-0.3 1.4-0.4 2.8z"/>
		<path class="s2" d="m679.8 181.7q-2.5 0-5-0.2-2.5-0.2-4.9-0.6-2.5-0.5-4.9-1.1-2.5-0.6-4.8-1.5-2.3-0.7-4.4-1.8-2.2-1-4.2-2.2-2-1.3-3.9-2.8-1.9-1.4-3.6-3.1l7.6-13.3q1.5 1.3 3.2 2.5 1.6 1.2 3.4 2.3 1.7 1.1 3.6 2 1.8 0.9 3.7 1.7 1.6 0.7 3.2 1.2 1.7 0.5 3.4 0.9 1.7 0.3 3.4 0.5 1.7 0.2 3.5 0.2 1.2 0 2.4-0.1 1.3-0.1 2.5-0.3 1.2-0.3 2.4-0.7 1.1-0.4 2.2-1 0.9-0.4 1.6-1.1 0.7-0.6 1.1-1.5 0.5-0.8 0.7-1.7 0.3-0.9 0.2-1.9 0.1-0.6 0-1.3-0.2-0.6-0.4-1.2-0.3-0.6-0.7-1.2-0.4-0.5-0.9-0.9-0.6-0.5-1.3-0.9-0.7-0.4-1.4-0.7-0.7-0.4-1.5-0.6-0.7-0.3-1.5-0.5-3.8-1.1-9.1-2.7-1.9-0.5-3.8-1.1-1.9-0.7-3.7-1.4-1.9-0.6-3.7-1.4-1.8-0.8-3.6-1.6-1.3-0.5-2.5-1.3-1.3-0.7-2.4-1.6-1.1-0.9-2.2-1.9-1-1-1.9-2.1-0.8-1.2-1.4-2.5-0.6-1.2-1-2.6-0.3-1.4-0.5-2.8-0.2-1.4-0.1-2.8-0.1-1.8 0.2-3.6 0.2-1.7 0.7-3.5 0.5-1.7 1.3-3.3 0.8-1.6 1.8-3.1 1.1-1.5 2.3-2.8 1.3-1.3 2.7-2.4 1.5-1.1 3.1-2 1.5-1 3.2-1.7 2-0.8 4.1-1.4 2.1-0.6 4.3-1 2.1-0.4 4.3-0.6 2.2-0.2 4.3-0.1 2.1 0 4.2 0.1 2 0.2 4.1 0.5 2 0.4 4 0.9 2 0.5 4 1.1 1.9 0.7 3.8 1.6 1.9 0.9 3.7 2 1.7 1.1 3.4 2.4 1.6 1.3 3.1 2.7l-8.4 13.2q-1.3-1.1-2.6-2.1-1.4-1-2.9-1.9-1.4-0.9-2.9-1.7-1.5-0.8-3.1-1.5-1.3-0.5-2.7-0.9-1.3-0.4-2.7-0.7-1.5-0.3-2.9-0.4-1.4-0.2-2.8-0.2-0.8 0-1.6 0.1-0.7 0-1.5 0.1-0.7 0.1-1.5 0.2-0.7 0.2-1.5 0.4-0.6 0.1-1.2 0.4-0.6 0.2-1.2 0.5-0.6 0.3-1.1 0.7-0.6 0.4-1 0.9-0.5 0.5-0.9 1-0.3 0.6-0.5 1.2-0.3 0.7-0.4 1.3-0.1 0.7 0 1.4 0 0.6 0.1 1.2 0 0.6 0.3 1.1 0.2 0.6 0.5 1.1 0.3 0.5 0.7 0.9 0.5 0.5 1.1 1 0.6 0.4 1.2 0.7 0.6 0.4 1.3 0.7 0.6 0.3 1.3 0.5 3.3 1.2 8 2.7 2.1 0.6 4.1 1.2 2.1 0.6 4.1 1.3 2 0.7 4 1.5 2.1 0.7 4 1.5 1.5 0.6 2.8 1.3 1.4 0.7 2.7 1.6 1.2 0.9 2.4 1.9 1.1 1.1 2.2 2.2 3.4 4.2 3.4 11.5 0 11.7-8.7 18.4-8.7 6.6-23.5 6.6z"/>
		<path fill-rule="evenodd" class="s2" d="m361.2 192.3l-9.8-7.8-5.9 7.8h-23.7l-7.3-7.8-6.4 7.8h-17.2l25.1 38.9h37.9l24.6-38.9h-17.3z"/>
		<path fill-rule="evenodd" class="s1" d="m319.9 242l14.8 26.1 14.3-26.1h-29.1z"/>
		<path fill-rule="evenodd" class="s2" d="m54.8 37.3v3.1l18 5.8v-2.6l-18-6.3z"/>
		<path fill-rule="evenodd" class="s2" d="m76.2 44.7l-2.1-0.7 0.1 2.7 2.1 0.6-0.1-2.6z"/>
		<path fill-rule="evenodd" class="s2" d="m53.1 215l24.1-9.5v-6.5l-24.1 8.9v7.1z"/>
		<path class="s2" d="m108 189.5v-53.6c-2.2 4.6-8 8.3-8 8.3v45.7q-0.1 0.9-0.3 1.8-0.1 0.8-0.4 1.6-0.2 0.9-0.5 1.7-0.4 0.8-0.8 1.5-0.6 1.1-1.4 2.1-0.8 1-1.7 1.9-0.9 0.9-1.9 1.6-1 0.8-2.2 1.4c-20 11.5-59.5 26.5-59.5 26.5 0 0-11.3 4.9-14.8-4.5v-194.8c0 0 2.1-10.8 16.8-5l58.3 20c0 0 8 2 8 9v7.1h0.1v9c2.9 2.1 8 7 8 7 0 0 0.2-9.7 0.1-18.4q0.1-0.7 0.2-1.4 0-0.7 0-1.3 0-0.7-0.1-1.4-0.1-0.7-0.2-1.4c0-0.5 0-1.1 0-1.6-0.4-9.3-9.3-11.4-9.3-11.4l-72.6-27.8c0 0-25.8-6.8-25.8 13.2v207.1c0 0 0 14.3 23.2 9 7.4-1.7 72.6-33.6 72.6-33.6q2.8-1.2 5.1-3.3 2.2-2 3.9-4.5 1.6-2.6 2.4-5.5 0.8-3 0.8-6z"/>
	</g>
</svg>